# This file uses centimeters as units for non-parametric coordinates.

mtllib Crystal2.mtl
g default
v 2.132537 2.315631 2.884434
v 2.137611 2.475696 2.827734
v 2.063928 2.509385 2.775685
v 2.002181 2.524308 2.703313
v 1.958414 2.519004 2.617700
v 1.871054 2.378825 2.577954
v 1.873741 2.339223 2.496938
v 1.898995 2.287328 2.427597
v 1.944345 2.228219 2.376718
v 2.005351 2.167684 2.349281
v 2.076042 2.111646 2.347972
v 2.149498 2.065593 2.372919
v 2.218529 2.034031 2.421681
v 2.276377 2.020050 2.489484
v 2.317380 2.025019 2.569691
v 2.337524 2.048452 2.654451
v 2.334838 2.088054 2.735467
v 2.309584 2.139949 2.804808
v 2.203228 2.259593 2.883125
v 2.059081 2.361684 2.859486
v 1.990050 2.393246 2.810725
v 1.932202 2.407227 2.742921
v 1.891199 2.402258 2.662714
v 2.118837 2.159353 2.902999
v 2.054651 2.210234 2.904188
v 1.987954 2.252050 2.881536
v 1.925276 2.280707 2.837261
v 1.872751 2.293401 2.775697
v 1.835521 2.288889 2.702870
v 1.817230 2.267613 2.625910
v 1.819669 2.231655 2.552349
v 1.842599 2.184535 2.489388
v 1.883776 2.130866 2.443191
v 1.939169 2.075901 2.418278
v 2.003355 2.025020 2.417090
v 2.070051 1.983204 2.439742
v 2.132730 1.954547 2.484017
v 2.185255 1.941852 2.545581
v 2.222485 1.946364 2.618407
v 2.240776 1.967640 2.695368
v 2.238337 2.003598 2.768928
v 2.215406 2.050718 2.831889
v 2.174230 2.104387 2.878087
v 2.040379 2.068471 2.912098
v 1.984278 2.112943 2.913137
v 1.925983 2.149491 2.893339
v 1.871200 2.174538 2.854641
v 1.825291 2.185634 2.800832
v 1.792751 2.181690 2.737180
v 1.776764 2.163094 2.669914
v 1.778896 2.131666 2.605619
v 1.798938 2.090481 2.550589
v 1.834927 2.043573 2.510211
v 1.883342 1.995531 2.488437
v 1.939443 1.951060 2.487399
v 1.997738 1.914511 2.507197
v 2.052521 1.889464 2.545895
v 2.098430 1.878369 2.599703
v 2.130970 1.882312 2.663356
v 2.146957 1.900908 2.730622
v 2.144825 1.932336 2.794917
v 2.124783 1.973521 2.849946
v 2.088793 2.020429 2.890325
v 1.969784 1.989186 2.910199
v 1.923150 2.026153 2.911063
v 1.874692 2.056534 2.894605
v 1.829154 2.077355 2.862437
v 1.790992 2.086578 2.817709
v 1.763943 2.083300 2.764797
v 1.750654 2.067842 2.708882
v 1.752426 2.041717 2.655437
v 1.769086 2.007482 2.609693
v 1.799002 1.968489 2.576129
v 1.839247 1.928555 2.558029
v 1.885881 1.891587 2.557166
v 1.934339 1.861206 2.573623
v 1.979878 1.840385 2.605791
v 2.018040 1.831163 2.650519
v 2.045089 1.834441 2.703431
v 2.058378 1.849899 2.759346
v 2.056606 1.876024 2.812791
v 2.039946 1.910258 2.858535
v 2.010029 1.949251 2.892099
v 1.908792 1.923449 2.897348
v 1.872773 1.952002 2.898015
v 1.835345 1.975467 2.885304
v 1.800172 1.991549 2.860458
v 1.770697 1.998672 2.825911
v 1.749805 1.996141 2.785043
v 1.739541 1.984201 2.741856
v 1.740910 1.964023 2.700576
v 1.753777 1.937581 2.665245
v 1.776884 1.907464 2.639321
v 1.807968 1.876619 2.625341
v 1.843987 1.848067 2.624674
v 1.881415 1.824601 2.637385
v 1.916588 1.808520 2.662231
v 1.946063 1.801396 2.696778
v 1.966955 1.803928 2.737646
v 1.977219 1.815867 2.780833
v 1.975850 1.836046 2.822113
v 1.962983 1.862488 2.857444
v 1.939876 1.892605 2.883368
v 1.858903 1.872879 2.873862
v 1.834386 1.892314 2.874316
v 1.808910 1.908286 2.865663
v 1.784969 1.919233 2.848752
v 1.764906 1.924081 2.825237
v 1.750686 1.922358 2.797420
v 1.743699 1.914231 2.768023
v 1.744631 1.900497 2.739925
v 1.753390 1.882498 2.715877
v 1.769118 1.861999 2.698231
v 1.790276 1.841004 2.688715
v 1.814793 1.821569 2.688261
v 1.840269 1.805597 2.696913
v 1.864210 1.794650 2.713825
v 1.884272 1.789802 2.737340
v 1.898493 1.791525 2.765157
v 1.905479 1.799652 2.794554
v 1.904548 1.813386 2.822651
v 1.895789 1.831384 2.846700
v 1.880061 1.851884 2.864346
v 1.821348 1.838723 2.840318
v 1.808936 1.848562 2.840548
v 1.796040 1.856647 2.836168
v 1.783920 1.862189 2.827607
v 1.773763 1.864643 2.815702
v 1.766565 1.863771 2.801620
v 1.763028 1.859657 2.786739
v 1.763499 1.852704 2.772515
v 1.767933 1.843593 2.760341
v 1.775895 1.833215 2.751408
v 1.786606 1.822587 2.746591
v 1.799018 1.812748 2.746361
v 1.811914 1.804663 2.750741
v 1.824034 1.799121 2.759302
v 1.834191 1.796667 2.771206
v 1.841389 1.797539 2.785288
v 1.844926 1.801653 2.800170
v 1.844455 1.808607 2.814393
v 1.840021 1.817718 2.826568
v 1.832059 1.828095 2.835501
v 2.922454 3.257030 2.133303
v 1.797049 1.821820 2.797544
vt 0.000000 0.650000
vt 0.050000 0.650000
vt 0.100000 0.600000
vt 0.150000 0.600000
vt 0.200000 0.600000
vt 0.250000 0.600000
vt 0.300000 0.650000
vt 0.350000 0.650000
vt 0.400000 0.650000
vt 0.450000 0.650000
vt 0.500000 0.650000
vt 0.550000 0.650000
vt 0.600000 0.650000
vt 0.650000 0.650000
vt 0.700000 0.650000
vt 0.750000 0.650000
vt 0.800000 0.650000
vt 0.850000 0.650000
vt 0.900000 0.650000
vt 1.000000 0.650000
vt 0.100000 0.650000
vt 0.150000 0.650000
vt 0.200000 0.650000
vt 0.250000 0.650000
vt 0.000000 0.700000
vt 0.050000 0.700000
vt 0.100000 0.700000
vt 0.150000 0.700000
vt 0.200000 0.700000
vt 0.250000 0.700000
vt 0.300000 0.700000
vt 0.350000 0.700000
vt 0.400000 0.700000
vt 0.450000 0.700000
vt 0.500000 0.700000
vt 0.550000 0.700000
vt 0.600000 0.700000
vt 0.650000 0.700000
vt 0.700000 0.700000
vt 0.750000 0.700000
vt 0.800000 0.700000
vt 0.850000 0.700000
vt 0.900000 0.700000
vt 0.950000 0.700000
vt 1.000000 0.700000
vt 0.000000 0.750000
vt 0.050000 0.750000
vt 0.100000 0.750000
vt 0.150000 0.750000
vt 0.200000 0.750000
vt 0.250000 0.750000
vt 0.300000 0.750000
vt 0.350000 0.750000
vt 0.400000 0.750000
vt 0.450000 0.750000
vt 0.500000 0.750000
vt 0.550000 0.750000
vt 0.600000 0.750000
vt 0.650000 0.750000
vt 0.700000 0.750000
vt 0.750000 0.750000
vt 0.800000 0.750000
vt 0.850000 0.750000
vt 0.900000 0.750000
vt 0.950000 0.750000
vt 1.000000 0.750000
vt 0.000000 0.800000
vt 0.050000 0.800000
vt 0.100000 0.800000
vt 0.150000 0.800000
vt 0.200000 0.800000
vt 0.250000 0.800000
vt 0.300000 0.800000
vt 0.350000 0.800000
vt 0.400000 0.800000
vt 0.450000 0.800000
vt 0.500000 0.800000
vt 0.550000 0.800000
vt 0.600000 0.800000
vt 0.650000 0.800000
vt 0.700000 0.800000
vt 0.750000 0.800000
vt 0.800000 0.800000
vt 0.850000 0.800000
vt 0.900000 0.800000
vt 0.950000 0.800000
vt 1.000000 0.800000
vt 0.000000 0.850000
vt 0.050000 0.850000
vt 0.100000 0.850000
vt 0.150000 0.850000
vt 0.200000 0.850000
vt 0.250000 0.850000
vt 0.300000 0.850000
vt 0.350000 0.850000
vt 0.400000 0.850000
vt 0.450000 0.850000
vt 0.500000 0.850000
vt 0.550000 0.850000
vt 0.600000 0.850000
vt 0.650000 0.850000
vt 0.700000 0.850000
vt 0.750000 0.850000
vt 0.800000 0.850000
vt 0.850000 0.850000
vt 0.900000 0.850000
vt 0.950000 0.850000
vt 1.000000 0.850000
vt 0.000000 0.900000
vt 0.050000 0.900000
vt 0.100000 0.900000
vt 0.150000 0.900000
vt 0.200000 0.900000
vt 0.250000 0.900000
vt 0.300000 0.900000
vt 0.350000 0.900000
vt 0.400000 0.900000
vt 0.450000 0.900000
vt 0.500000 0.900000
vt 0.550000 0.900000
vt 0.600000 0.900000
vt 0.650000 0.900000
vt 0.700000 0.900000
vt 0.750000 0.900000
vt 0.800000 0.900000
vt 0.850000 0.900000
vt 0.900000 0.900000
vt 0.950000 0.900000
vt 1.000000 0.900000
vt 0.000000 0.950000
vt 0.050000 0.950000
vt 0.100000 0.950000
vt 0.150000 0.950000
vt 0.200000 0.950000
vt 0.250000 0.950000
vt 0.300000 0.950000
vt 0.350000 0.950000
vt 0.400000 0.950000
vt 0.450000 0.950000
vt 0.500000 0.950000
vt 0.550000 0.950000
vt 0.600000 0.950000
vt 0.650000 0.950000
vt 0.700000 0.950000
vt 0.750000 0.950000
vt 0.800000 0.950000
vt 0.850000 0.950000
vt 0.900000 0.950000
vt 0.950000 0.950000
vt 1.000000 0.950000
vt 0.025000 0.000000
vt 0.075000 0.000000
vt 0.125000 0.000000
vt 0.175000 0.000000
vt 0.225000 0.000000
vt 0.275000 0.000000
vt 0.325000 0.000000
vt 0.375000 0.000000
vt 0.425000 0.000000
vt 0.475000 0.000000
vt 0.525000 0.000000
vt 0.575000 0.000000
vt 0.625000 0.000000
vt 0.675000 0.000000
vt 0.725000 0.000000
vt 0.775000 0.000000
vt 0.825000 0.000000
vt 0.875000 0.000000
vt 0.925000 0.000000
vt 0.025000 1.000000
vt 0.075000 1.000000
vt 0.125000 1.000000
vt 0.175000 1.000000
vt 0.225000 1.000000
vt 0.275000 1.000000
vt 0.325000 1.000000
vt 0.375000 1.000000
vt 0.425000 1.000000
vt 0.475000 1.000000
vt 0.525000 1.000000
vt 0.575000 1.000000
vt 0.625000 1.000000
vt 0.675000 1.000000
vt 0.725000 1.000000
vt 0.775000 1.000000
vt 0.825000 1.000000
vt 0.875000 1.000000
vt 0.925000 1.000000
vt 0.975000 1.000000
vn 0.290341 0.339144 0.894809
vn 0.220623 0.479791 0.849191
vn -0.273791 0.390967 0.878740
vn -0.290593 0.740725 0.605708
vn -0.486777 0.491736 0.721972
vn -0.488218 0.788487 0.374074
vn -0.684618 0.539550 0.490086
vn -0.683905 0.698397 -0.210990
vn -0.817891 0.522464 0.241009
vn -0.743435 0.588985 -0.316861
vn 0.534855 0.176436 0.826317
vn -0.039525 0.172100 0.984286
vn 0.175241 -0.003629 0.984519
vn -0.287288 0.327435 0.900140
vn -0.520124 0.433891 0.735670
vn -0.715241 0.481047 0.506976
vn -0.853541 0.464286 0.236444
vn -0.921487 0.385250 -0.049446
vn -0.709198 0.536008 -0.457967
vn -0.912426 0.251675 -0.322706
vn -0.622503 0.357857 -0.696009
vn -0.827245 0.076638 -0.556589
vn -0.466823 0.154946 -0.870671
vn -0.674284 -0.122730 -0.728202
vn -0.257396 -0.052865 -0.964859
vn -0.468515 -0.326913 -0.820745
vn -0.014722 -0.245236 -0.969352
vn -0.230079 -0.515923 -0.825159
vn 0.237446 -0.403333 -0.883709
vn 0.017683 -0.671259 -0.741012
vn 0.474421 -0.511682 -0.716314
vn 0.250518 -0.777714 -0.576542
vn 0.673006 -0.559675 -0.483556
vn 0.445636 -0.824869 -0.347849
vn 0.813765 -0.542617 -0.208215
vn 0.583936 -0.808109 -0.077317
vn 0.882918 -0.462176 0.082757
vn 0.651881 -0.729073 0.208573
vn 0.873696 -0.326226 0.360875
vn 0.642821 -0.595498 0.481834
vn 0.727252 -0.046412 0.684800
vn 0.553892 -0.363972 0.748818
vn 0.441204 -0.201198 0.874562
vn -0.087473 0.105845 0.990528
vn 0.145490 -0.078826 0.986215
vn -0.329549 0.257616 0.908312
vn -0.557039 0.361627 0.747619
vn -0.747677 0.407701 0.524174
vn -0.882803 0.391325 0.259851
vn -0.949189 0.314104 -0.019476
vn -0.940336 0.183595 -0.286464
vn -0.857111 0.012575 -0.514978
vn -0.707662 -0.182217 -0.682651
vn -0.506615 -0.381712 -0.773070
vn -0.273652 -0.566384 -0.777383
vn -0.031578 -0.718153 -0.695168
vn 0.195913 -0.822165 -0.534474
vn 0.386552 -0.868239 -0.311029
vn 0.521678 -0.851863 -0.046706
vn 0.588063 -0.774642 0.232620
vn 0.579211 -0.644133 0.499608
vn 0.495986 -0.473112 0.728123
vn 0.346536 -0.278321 0.895796
vn -0.147541 0.020643 0.988841
vn 0.076207 -0.156724 0.984698
vn -0.380041 0.166410 0.909877
vn -0.598531 0.266307 0.755540
vn -0.781629 0.310557 0.540935
vn -0.911410 0.294829 0.287068
vn -0.975169 0.220662 0.018791
vn -0.966666 0.095316 -0.237636
vn -0.886734 -0.068939 -0.457111
vn -0.743196 -0.256025 -0.618151
vn -0.550103 -0.447629 -0.704993
vn -0.326355 -0.624995 -0.709135
vn -0.093857 -0.770761 -0.630173
vn 0.124635 -0.870659 -0.475835
vn 0.307733 -0.914910 -0.261230
vn 0.437514 -0.899182 -0.007363
vn 0.501273 -0.825015 0.260914
vn 0.492770 -0.699669 0.517341
vn 0.412837 -0.535414 0.736816
vn 0.269300 -0.348328 0.897856
vn -0.225692 -0.094148 0.969639
vn -0.018154 -0.258664 0.965797
vn -0.441348 0.041059 0.896396
vn -0.644010 0.133719 0.753240
vn -0.813843 0.174764 0.554181
vn -0.934222 0.160175 0.318707
vn -0.993362 0.091381 0.069865
vn -0.985475 -0.024884 -0.167985
vn -0.911334 -0.177240 -0.371560
vn -0.778194 -0.350773 -0.520934
vn -0.599090 -0.528496 -0.601485
vn -0.391552 -0.693013 -0.605327
vn -0.175897 -0.828219 -0.532085
vn 0.026766 -0.920879 -0.388928
vn 0.196599 -0.961924 -0.189870
vn 0.316978 -0.947336 0.045606
vn 0.376119 -0.878542 0.294447
vn 0.368232 -0.762277 0.532297
vn 0.294091 -0.609920 0.735872
vn 0.160952 -0.436388 0.885246
vn -0.327599 -0.251688 0.910677
vn -0.149615 -0.392777 0.907382
vn -0.512544 -0.135735 0.847865
vn -0.686348 -0.056269 0.725094
vn -0.831996 -0.021069 0.554382
vn -0.935232 -0.033581 0.352440
vn -0.985951 -0.092578 0.139033
vn -0.979187 -0.192287 -0.064947
vn -0.915603 -0.322947 -0.239532
vn -0.801423 -0.471768 -0.367635
vn -0.647824 -0.624183 -0.436715
vn -0.469840 -0.765272 -0.440010
vn -0.284894 -0.881225 -0.377198
vn -0.111091 -0.960690 -0.254427
vn 0.034558 -0.995890 -0.083715
vn 0.137795 -0.983379 0.118228
vn 0.188513 -0.924381 0.331635
vn 0.181749 -0.824673 0.535614
vn 0.118166 -0.694014 0.710199
vn 0.003985 -0.545193 0.838301
vn -0.443450 -0.446131 0.777380
vn -0.315505 -0.547559 0.775007
vn -0.576399 -0.362778 0.732227
vn -0.701337 -0.305655 0.643974
vn -0.806036 -0.280350 0.521258
vn -0.880247 -0.289344 0.376092
vn -0.916706 -0.331754 0.222685
vn -0.911844 -0.403430 0.076055
vn -0.866137 -0.497354 -0.049445
vn -0.784059 -0.604335 -0.141532
vn -0.673644 -0.713898 -0.191190
vn -0.545700 -0.815320 -0.193559
vn -0.412754 -0.898671 -0.148406
vn -0.287816 -0.955795 -0.060153
vn -0.183116 -0.981099 0.062564
vn -0.108905 -0.972105 0.207730
vn -0.072450 -0.929692 0.361142
vn -0.077314 -0.858016 0.507771
vn -0.123024 -0.764096 0.633263
vn -0.205095 -0.657121 0.725347
vn 0.751410 0.659788 -0.007975
vn -0.579796 -0.739410 0.342214
s 1
g pSphere3
usemtl lambert3SG
f 1/2/1 2/3/2 20/21/3
f 2/3/2 3/4/4 21/22/5 20/21/3
f 3/4/4 4/5/6 22/23/7 21/22/5
f 4/5/6 5/6/8 23/24/9 22/23/7
f 5/6/8 6/7/10 23/24/9
f 19/1/11 1/2/1 25/26/12 24/25/13
f 1/2/1 20/21/3 26/27/14 25/26/12
f 20/21/3 21/22/5 27/28/15 26/27/14
f 21/22/5 22/23/7 28/29/16 27/28/15
f 22/23/7 23/24/9 29/30/17 28/29/16
f 23/24/9 6/7/10 30/31/18 29/30/17
f 6/7/10 7/8/19 31/32/20 30/31/18
f 7/8/19 8/9/21 32/33/22 31/32/20
f 8/9/21 9/10/23 33/34/24 32/33/22
f 9/10/23 10/11/25 34/35/26 33/34/24
f 10/11/25 11/12/27 35/36/28 34/35/26
f 11/12/27 12/13/29 36/37/30 35/36/28
f 12/13/29 13/14/31 37/38/32 36/37/30
f 13/14/31 14/15/33 38/39/34 37/38/32
f 14/15/33 15/16/35 39/40/36 38/39/34
f 15/16/35 16/17/37 40/41/38 39/40/36
f 16/17/37 17/18/39 41/42/40 40/41/38
f 17/18/39 18/19/41 42/43/42 41/42/40
f 18/19/41 19/20/11 43/44/43 42/43/42
f 19/20/11 24/45/13 43/44/43
f 24/25/13 25/26/12 45/47/44 44/46/45
f 25/26/12 26/27/14 46/48/46 45/47/44
f 26/27/14 27/28/15 47/49/47 46/48/46
f 27/28/15 28/29/16 48/50/48 47/49/47
f 28/29/16 29/30/17 49/51/49 48/50/48
f 29/30/17 30/31/18 50/52/50 49/51/49
f 30/31/18 31/32/20 51/53/51 50/52/50
f 31/32/20 32/33/22 52/54/52 51/53/51
f 32/33/22 33/34/24 53/55/53 52/54/52
f 33/34/24 34/35/26 54/56/54 53/55/53
f 34/35/26 35/36/28 55/57/55 54/56/54
f 35/36/28 36/37/30 56/58/56 55/57/55
f 36/37/30 37/38/32 57/59/57 56/58/56
f 37/38/32 38/39/34 58/60/58 57/59/57
f 38/39/34 39/40/36 59/61/59 58/60/58
f 39/40/36 40/41/38 60/62/60 59/61/59
f 40/41/38 41/42/40 61/63/61 60/62/60
f 41/42/40 42/43/42 62/64/62 61/63/61
f 42/43/42 43/44/43 63/65/63 62/64/62
f 43/44/43 24/45/13 44/66/45 63/65/63
f 44/46/45 45/47/44 65/68/64 64/67/65
f 45/47/44 46/48/46 66/69/66 65/68/64
f 46/48/46 47/49/47 67/70/67 66/69/66
f 47/49/47 48/50/48 68/71/68 67/70/67
f 48/50/48 49/51/49 69/72/69 68/71/68
f 49/51/49 50/52/50 70/73/70 69/72/69
f 50/52/50 51/53/51 71/74/71 70/73/70
f 51/53/51 52/54/52 72/75/72 71/74/71
f 52/54/52 53/55/53 73/76/73 72/75/72
f 53/55/53 54/56/54 74/77/74 73/76/73
f 54/56/54 55/57/55 75/78/75 74/77/74
f 55/57/55 56/58/56 76/79/76 75/78/75
f 56/58/56 57/59/57 77/80/77 76/79/76
f 57/59/57 58/60/58 78/81/78 77/80/77
f 58/60/58 59/61/59 79/82/79 78/81/78
f 59/61/59 60/62/60 80/83/80 79/82/79
f 60/62/60 61/63/61 81/84/81 80/83/80
f 61/63/61 62/64/62 82/85/82 81/84/81
f 62/64/62 63/65/63 83/86/83 82/85/82
f 63/65/63 44/66/45 64/87/65 83/86/83
f 64/67/65 65/68/64 85/89/84 84/88/85
f 65/68/64 66/69/66 86/90/86 85/89/84
f 66/69/66 67/70/67 87/91/87 86/90/86
f 67/70/67 68/71/68 88/92/88 87/91/87
f 68/71/68 69/72/69 89/93/89 88/92/88
f 69/72/69 70/73/70 90/94/90 89/93/89
f 70/73/70 71/74/71 91/95/91 90/94/90
f 71/74/71 72/75/72 92/96/92 91/95/91
f 72/75/72 73/76/73 93/97/93 92/96/92
f 73/76/73 74/77/74 94/98/94 93/97/93
f 74/77/74 75/78/75 95/99/95 94/98/94
f 75/78/75 76/79/76 96/100/96 95/99/95
f 76/79/76 77/80/77 97/101/97 96/100/96
f 77/80/77 78/81/78 98/102/98 97/101/97
f 78/81/78 79/82/79 99/103/99 98/102/98
f 79/82/79 80/83/80 100/104/100 99/103/99
f 80/83/80 81/84/81 101/105/101 100/104/100
f 81/84/81 82/85/82 102/106/102 101/105/101
f 82/85/82 83/86/83 103/107/103 102/106/102
f 83/86/83 64/87/65 84/108/85 103/107/103
f 84/88/85 85/89/84 105/110/104 104/109/105
f 85/89/84 86/90/86 106/111/106 105/110/104
f 86/90/86 87/91/87 107/112/107 106/111/106
f 87/91/87 88/92/88 108/113/108 107/112/107
f 88/92/88 89/93/89 109/114/109 108/113/108
f 89/93/89 90/94/90 110/115/110 109/114/109
f 90/94/90 91/95/91 111/116/111 110/115/110
f 91/95/91 92/96/92 112/117/112 111/116/111
f 92/96/92 93/97/93 113/118/113 112/117/112
f 93/97/93 94/98/94 114/119/114 113/118/113
f 94/98/94 95/99/95 115/120/115 114/119/114
f 95/99/95 96/100/96 116/121/116 115/120/115
f 96/100/96 97/101/97 117/122/117 116/121/116
f 97/101/97 98/102/98 118/123/118 117/122/117
f 98/102/98 99/103/99 119/124/119 118/123/118
f 99/103/99 100/104/100 120/125/120 119/124/119
f 100/104/100 101/105/101 121/126/121 120/125/120
f 101/105/101 102/106/102 122/127/122 121/126/121
f 102/106/102 103/107/103 123/128/123 122/127/122
f 103/107/103 84/108/85 104/129/105 123/128/123
f 104/109/105 105/110/104 125/131/124 124/130/125
f 105/110/104 106/111/106 126/132/126 125/131/124
f 106/111/106 107/112/107 127/133/127 126/132/126
f 107/112/107 108/113/108 128/134/128 127/133/127
f 108/113/108 109/114/109 129/135/129 128/134/128
f 109/114/109 110/115/110 130/136/130 129/135/129
f 110/115/110 111/116/111 131/137/131 130/136/130
f 111/116/111 112/117/112 132/138/132 131/137/131
f 112/117/112 113/118/113 133/139/133 132/138/132
f 113/118/113 114/119/114 134/140/134 133/139/133
f 114/119/114 115/120/115 135/141/135 134/140/134
f 115/120/115 116/121/116 136/142/136 135/141/135
f 116/121/116 117/122/117 137/143/137 136/142/136
f 117/122/117 118/123/118 138/144/138 137/143/137
f 118/123/118 119/124/119 139/145/139 138/144/138
f 119/124/119 120/125/120 140/146/140 139/145/139
f 120/125/120 121/126/121 141/147/141 140/146/140
f 121/126/121 122/127/122 142/148/142 141/147/141
f 122/127/122 123/128/123 143/149/143 142/148/142
f 123/128/123 104/129/105 124/150/125 143/149/143
f 1/2/1 19/1/11 144/151/144
f 2/3/2 1/2/1 144/152/144
f 3/4/4 2/3/2 144/153/144
f 4/5/6 3/4/4 144/154/144
f 5/6/8 4/5/6 144/155/144
f 6/7/10 5/6/8 144/156/144
f 7/8/19 6/7/10 144/157/144
f 8/9/21 7/8/19 144/158/144
f 9/10/23 8/9/21 144/159/144
f 10/11/25 9/10/23 144/160/144
f 11/12/27 10/11/25 144/161/144
f 12/13/29 11/12/27 144/162/144
f 13/14/31 12/13/29 144/163/144
f 14/15/33 13/14/31 144/164/144
f 15/16/35 14/15/33 144/165/144
f 16/17/37 15/16/35 144/166/144
f 17/18/39 16/17/37 144/167/144
f 18/19/41 17/18/39 144/168/144
f 19/20/11 18/19/41 144/169/144
f 124/130/125 125/131/124 145/170/145
f 125/131/124 126/132/126 145/171/145
f 126/132/126 127/133/127 145/172/145
f 127/133/127 128/134/128 145/173/145
f 128/134/128 129/135/129 145/174/145
f 129/135/129 130/136/130 145/175/145
f 130/136/130 131/137/131 145/176/145
f 131/137/131 132/138/132 145/177/145
f 132/138/132 133/139/133 145/178/145
f 133/139/133 134/140/134 145/179/145
f 134/140/134 135/141/135 145/180/145
f 135/141/135 136/142/136 145/181/145
f 136/142/136 137/143/137 145/182/145
f 137/143/137 138/144/138 145/183/145
f 138/144/138 139/145/139 145/184/145
f 139/145/139 140/146/140 145/185/145
f 140/146/140 141/147/141 145/186/145
f 141/147/141 142/148/142 145/187/145
f 142/148/142 143/149/143 145/188/145
f 143/149/143 124/150/125 145/189/145
