# This file uses centimeters as units for non-parametric coordinates.

mtllib RotatingStuff1.mtl
g default
v -2.499765 2.449917 1.999018
v -2.506205 2.294202 2.066641
v -2.588734 2.263289 2.105453
v -2.663521 2.252637 2.165175
v -2.723243 2.263289 2.239961
v -2.816466 2.404809 2.251925
v -2.829678 2.449917 2.328931
v -2.818447 2.506757 2.398084
v -2.783873 2.569765 2.452616
v -2.729341 2.632773 2.487190
v -2.660187 2.689613 2.498421
v -2.583182 2.734722 2.485209
v -2.505863 2.763683 2.448848
v -2.435799 2.773662 2.392896
v -2.379848 2.763683 2.322832
v -2.343487 2.734722 2.245513
v -2.330275 2.689613 2.168508
v -2.341505 2.632773 2.099355
v -2.430612 2.506757 2.010249
v -2.576770 2.404809 2.012230
v -2.654089 2.375847 2.048591
v -2.724153 2.365868 2.104542
v -2.780105 2.375847 2.174607
v -2.509281 2.604373 1.967268
v -2.572071 2.552763 1.957070
v -2.641990 2.511805 1.969067
v -2.712194 2.485509 2.002082
v -2.775811 2.476448 2.052885
v -2.826614 2.485509 2.116502
v -2.859629 2.511805 2.186706
v -2.871625 2.552763 2.256625
v -2.861428 2.604373 2.319415
v -2.830036 2.661583 2.368930
v -2.780521 2.718792 2.400322
v -2.717731 2.770402 2.410519
v -2.647812 2.811360 2.398523
v -2.577608 2.837656 2.365507
v -2.513991 2.846717 2.314705
v -2.463188 2.837656 2.251088
v -2.430173 2.811360 2.180884
v -2.418177 2.770402 2.110965
v -2.428374 2.718792 2.048175
v -2.459766 2.661583 1.998660
v -2.584266 2.693465 1.936642
v -2.639146 2.648356 1.927729
v -2.700258 2.612558 1.938214
v -2.761619 2.589574 1.967071
v -2.817222 2.581654 2.011473
v -2.861625 2.589574 2.067077
v -2.890482 2.612558 2.128438
v -2.900967 2.648356 2.189549
v -2.892054 2.693465 2.244430
v -2.864616 2.743468 2.287707
v -2.821339 2.793471 2.315145
v -2.766458 2.838580 2.324057
v -2.705347 2.874378 2.313572
v -2.643986 2.897362 2.284716
v -2.588383 2.905281 2.240313
v -2.543980 2.897362 2.184710
v -2.515123 2.874378 2.123349
v -2.504638 2.838580 2.062237
v -2.513551 2.793471 2.007357
v -2.540989 2.743468 1.964079
v -2.653721 2.771838 1.919125
v -2.699340 2.734342 1.911716
v -2.750140 2.704584 1.920432
v -2.801146 2.685479 1.944419
v -2.847366 2.678895 1.981329
v -2.884277 2.685479 2.027550
v -2.908264 2.704584 2.078556
v -2.916979 2.734342 2.129355
v -2.909571 2.771838 2.174975
v -2.886763 2.813404 2.210949
v -2.850789 2.854969 2.233757
v -2.805169 2.892466 2.241166
v -2.754370 2.922223 2.232450
v -2.703363 2.941329 2.208463
v -2.657143 2.947912 2.171553
v -2.620233 2.941329 2.125332
v -2.596246 2.922223 2.074326
v -2.587530 2.892466 2.023527
v -2.594939 2.854969 1.977907
v -2.617746 2.813404 1.941933
v -2.715935 2.837565 1.915148
v -2.751171 2.808604 1.909426
v -2.790407 2.785620 1.916158
v -2.829803 2.770863 1.934685
v -2.865502 2.765779 1.963193
v -2.894011 2.770863 1.998893
v -2.912538 2.785620 2.038289
v -2.919270 2.808604 2.077525
v -2.913548 2.837565 2.112760
v -2.895931 2.869669 2.140546
v -2.868146 2.901774 2.158162
v -2.832910 2.930735 2.163884
v -2.793674 2.953719 2.157153
v -2.754278 2.968475 2.138625
v -2.718579 2.973560 2.110117
v -2.690070 2.968476 2.074417
v -2.671543 2.953719 2.035021
v -2.664811 2.930735 1.995786
v -2.670533 2.901773 1.960550
v -2.688150 2.869669 1.932764
v -2.769378 2.889027 1.924809
v -2.793362 2.869314 1.920914
v -2.820069 2.853670 1.925496
v -2.846884 2.843626 1.938107
v -2.871184 2.840164 1.957512
v -2.890589 2.843626 1.981811
v -2.903199 2.853670 2.008627
v -2.907781 2.869314 2.035334
v -2.903886 2.889027 2.059317
v -2.891896 2.910880 2.078230
v -2.872983 2.932732 2.090221
v -2.848999 2.952445 2.094116
v -2.822292 2.968089 2.089534
v -2.795477 2.978134 2.076923
v -2.771177 2.981595 2.057518
v -2.751772 2.978134 2.033219
v -2.739162 2.968089 2.006403
v -2.734580 2.952445 1.979696
v -2.738475 2.932732 1.955713
v -2.750465 2.910880 1.936800
v -2.812732 2.924956 1.947871
v -2.824873 2.914976 1.945899
v -2.838393 2.907057 1.948219
v -2.851968 2.901972 1.954603
v -2.864269 2.900220 1.964426
v -2.874093 2.901972 1.976728
v -2.880477 2.907056 1.990303
v -2.882796 2.914976 2.003822
v -2.880824 2.924956 2.015964
v -2.874754 2.936018 2.025538
v -2.865180 2.947080 2.031608
v -2.853039 2.957060 2.033580
v -2.839519 2.964979 2.031260
v -2.825944 2.970064 2.024876
v -2.813643 2.971816 2.015053
v -2.803819 2.970064 2.002752
v -2.797435 2.964979 1.989177
v -2.795115 2.957059 1.975657
v -2.797087 2.947080 1.963516
v -2.803157 2.936017 1.953942
v -1.874418 1.571955 2.954278
v -2.844931 2.944467 1.983765
vt 0.000000 0.650000
vt 0.050000 0.650000
vt 0.100000 0.600000
vt 0.150000 0.600000
vt 0.200000 0.600000
vt 0.250000 0.600000
vt 0.300000 0.650000
vt 0.350000 0.650000
vt 0.400000 0.650000
vt 0.450000 0.650000
vt 0.500000 0.650000
vt 0.550000 0.650000
vt 0.600000 0.650000
vt 0.650000 0.650000
vt 0.700000 0.650000
vt 0.750000 0.650000
vt 0.800000 0.650000
vt 0.850000 0.650000
vt 0.900000 0.650000
vt 1.000000 0.650000
vt 0.100000 0.650000
vt 0.150000 0.650000
vt 0.200000 0.650000
vt 0.250000 0.650000
vt 0.000000 0.700000
vt 0.050000 0.700000
vt 0.100000 0.700000
vt 0.150000 0.700000
vt 0.200000 0.700000
vt 0.250000 0.700000
vt 0.300000 0.700000
vt 0.350000 0.700000
vt 0.400000 0.700000
vt 0.450000 0.700000
vt 0.500000 0.700000
vt 0.550000 0.700000
vt 0.600000 0.700000
vt 0.650000 0.700000
vt 0.700000 0.700000
vt 0.750000 0.700000
vt 0.800000 0.700000
vt 0.850000 0.700000
vt 0.900000 0.700000
vt 0.950000 0.700000
vt 1.000000 0.700000
vt 0.000000 0.750000
vt 0.050000 0.750000
vt 0.100000 0.750000
vt 0.150000 0.750000
vt 0.200000 0.750000
vt 0.250000 0.750000
vt 0.300000 0.750000
vt 0.350000 0.750000
vt 0.400000 0.750000
vt 0.450000 0.750000
vt 0.500000 0.750000
vt 0.550000 0.750000
vt 0.600000 0.750000
vt 0.650000 0.750000
vt 0.700000 0.750000
vt 0.750000 0.750000
vt 0.800000 0.750000
vt 0.850000 0.750000
vt 0.900000 0.750000
vt 0.950000 0.750000
vt 1.000000 0.750000
vt 0.000000 0.800000
vt 0.050000 0.800000
vt 0.100000 0.800000
vt 0.150000 0.800000
vt 0.200000 0.800000
vt 0.250000 0.800000
vt 0.300000 0.800000
vt 0.350000 0.800000
vt 0.400000 0.800000
vt 0.450000 0.800000
vt 0.500000 0.800000
vt 0.550000 0.800000
vt 0.600000 0.800000
vt 0.650000 0.800000
vt 0.700000 0.800000
vt 0.750000 0.800000
vt 0.800000 0.800000
vt 0.850000 0.800000
vt 0.900000 0.800000
vt 0.950000 0.800000
vt 1.000000 0.800000
vt 0.000000 0.850000
vt 0.050000 0.850000
vt 0.100000 0.850000
vt 0.150000 0.850000
vt 0.200000 0.850000
vt 0.250000 0.850000
vt 0.300000 0.850000
vt 0.350000 0.850000
vt 0.400000 0.850000
vt 0.450000 0.850000
vt 0.500000 0.850000
vt 0.550000 0.850000
vt 0.600000 0.850000
vt 0.650000 0.850000
vt 0.700000 0.850000
vt 0.750000 0.850000
vt 0.800000 0.850000
vt 0.850000 0.850000
vt 0.900000 0.850000
vt 0.950000 0.850000
vt 1.000000 0.850000
vt 0.000000 0.900000
vt 0.050000 0.900000
vt 0.100000 0.900000
vt 0.150000 0.900000
vt 0.200000 0.900000
vt 0.250000 0.900000
vt 0.300000 0.900000
vt 0.350000 0.900000
vt 0.400000 0.900000
vt 0.450000 0.900000
vt 0.500000 0.900000
vt 0.550000 0.900000
vt 0.600000 0.900000
vt 0.650000 0.900000
vt 0.700000 0.900000
vt 0.750000 0.900000
vt 0.800000 0.900000
vt 0.850000 0.900000
vt 0.900000 0.900000
vt 0.950000 0.900000
vt 1.000000 0.900000
vt 0.000000 0.950000
vt 0.050000 0.950000
vt 0.100000 0.950000
vt 0.150000 0.950000
vt 0.200000 0.950000
vt 0.250000 0.950000
vt 0.300000 0.950000
vt 0.350000 0.950000
vt 0.400000 0.950000
vt 0.450000 0.950000
vt 0.500000 0.950000
vt 0.550000 0.950000
vt 0.600000 0.950000
vt 0.650000 0.950000
vt 0.700000 0.950000
vt 0.750000 0.950000
vt 0.800000 0.950000
vt 0.850000 0.950000
vt 0.900000 0.950000
vt 0.950000 0.950000
vt 1.000000 0.950000
vt 0.025000 0.000000
vt 0.075000 0.000000
vt 0.125000 0.000000
vt 0.175000 0.000000
vt 0.225000 0.000000
vt 0.275000 0.000000
vt 0.325000 0.000000
vt 0.375000 0.000000
vt 0.425000 0.000000
vt 0.475000 0.000000
vt 0.525000 0.000000
vt 0.575000 0.000000
vt 0.625000 0.000000
vt 0.675000 0.000000
vt 0.725000 0.000000
vt 0.775000 0.000000
vt 0.825000 0.000000
vt 0.875000 0.000000
vt 0.925000 0.000000
vt 0.025000 1.000000
vt 0.075000 1.000000
vt 0.125000 1.000000
vt 0.175000 1.000000
vt 0.225000 1.000000
vt 0.275000 1.000000
vt 0.325000 1.000000
vt 0.375000 1.000000
vt 0.425000 1.000000
vt 0.475000 1.000000
vt 0.525000 1.000000
vt 0.575000 1.000000
vt 0.625000 1.000000
vt 0.675000 1.000000
vt 0.725000 1.000000
vt 0.775000 1.000000
vt 0.825000 1.000000
vt 0.875000 1.000000
vt 0.925000 1.000000
vt 0.975000 1.000000
vn 0.459870 -0.396356 -0.794620
vn 0.382306 -0.534362 -0.753856
vn -0.096515 -0.453726 -0.885899
vn -0.167228 -0.784059 -0.597734
vn -0.336321 -0.546030 -0.767294
vn -0.406587 -0.818152 -0.406589
vn -0.575940 -0.580159 -0.575941
vn -0.713233 -0.690403 0.121007
vn -0.755516 -0.547589 -0.359642
vn -0.792211 -0.574694 0.205253
vn 0.686447 -0.226398 -0.691039
vn 0.154298 -0.239836 -0.958473
vn 0.365229 -0.061972 -0.928853
vn -0.105436 -0.391984 -0.913910
vn -0.366227 -0.489668 -0.791267
vn -0.602548 -0.523328 -0.602548
vn -0.791267 -0.489668 -0.366227
vn -0.913911 -0.391983 -0.105435
vn -0.786268 -0.511732 0.346285
vn -0.958474 -0.239835 0.154297
vn -0.747714 -0.316606 0.583682
vn -0.920594 -0.048119 0.387546
vn -0.629027 -0.100309 0.770885
vn -0.803979 0.164400 0.571481
vn -0.441823 0.115989 0.889572
vn -0.620045 0.376921 0.688095
vn -0.204427 0.311115 0.928126
vn -0.386795 0.568639 0.725975
vn 0.059924 0.465968 0.882770
vn -0.127063 0.720787 0.681411
vn 0.325352 0.565389 0.757946
vn 0.133728 0.818471 0.558768
vn 0.565872 0.599647 0.565873
vn 0.370049 0.852131 0.370050
vn 0.757946 0.565389 0.325351
vn 0.558768 0.818471 0.133728
vn 0.882771 0.465967 0.059923
vn 0.681412 0.720786 -0.127063
vn 0.928126 0.311115 -0.204427
vn 0.725975 0.568638 -0.386796
vn 0.847681 0.007950 -0.530446
vn 0.690824 0.318250 -0.649214
vn 0.604751 0.145873 -0.782941
vn 0.108624 -0.174748 -0.978603
vn 0.336520 0.012568 -0.941592
vn -0.145148 -0.323404 -0.935062
vn -0.399951 -0.418846 -0.815235
vn -0.630847 -0.451733 -0.630848
vn -0.815235 -0.418846 -0.399951
vn -0.935063 -0.323404 -0.145146
vn -0.978603 -0.174749 0.108625
vn -0.941593 0.012567 0.336519
vn -0.827655 0.220209 0.516231
vn -0.647943 0.427851 0.630169
vn -0.420047 0.615168 0.667180
vn -0.166277 0.763823 0.623640
vn 0.088527 0.859265 0.503812
vn 0.319424 0.892152 0.319425
vn 0.503812 0.859265 0.088528
vn 0.623640 0.763823 -0.166276
vn 0.667180 0.615167 -0.420047
vn 0.630170 0.427851 -0.647942
vn 0.516232 0.220210 -0.827654
vn 0.049543 -0.090359 -0.994676
vn 0.268424 0.089548 -0.959130
vn -0.194191 -0.233135 -0.952858
vn -0.438914 -0.324801 -0.837770
vn -0.660677 -0.356387 -0.660677
vn -0.837770 -0.324801 -0.438914
vn -0.952858 -0.233134 -0.194189
vn -0.994676 -0.090359 0.049543
vn -0.959130 0.089547 0.268423
vn -0.849700 0.288975 0.441026
vn -0.677097 0.488403 0.550457
vn -0.458215 0.668311 0.586003
vn -0.214484 0.811085 0.544186
vn 0.030241 0.902752 0.429097
vn 0.252004 0.934338 0.252004
vn 0.429097 0.902752 0.030241
vn 0.544185 0.811085 -0.214484
vn 0.586003 0.668310 -0.458216
vn 0.550457 0.488404 -0.677096
vn 0.441027 0.288977 -0.849699
vn -0.030659 0.024533 -0.999229
vn 0.172365 0.191406 -0.966258
vn -0.256734 -0.107899 -0.960440
vn -0.483729 -0.192926 -0.853690
vn -0.689426 -0.222223 -0.689426
vn -0.853690 -0.192925 -0.483729
vn -0.960441 -0.107899 -0.256733
vn -0.999229 0.024533 -0.030658
vn -0.966258 0.191406 0.172365
vn -0.864755 0.376386 0.332464
vn -0.704656 0.561367 0.433967
vn -0.501632 0.728240 0.466938
vn -0.275558 0.860672 0.428150
vn -0.048563 0.945698 0.321399
vn 0.157134 0.974996 0.157135
vn 0.321399 0.945698 -0.048562
vn 0.428150 0.860672 -0.275558
vn 0.466938 0.728240 -0.501632
vn 0.433968 0.561367 -0.704655
vn 0.332465 0.376387 -0.864754
vn -0.141890 0.184518 -0.972533
vn 0.032223 0.327628 -0.944257
vn -0.335771 0.070945 -0.939268
vn -0.530442 -0.001974 -0.847719
vn -0.706847 -0.027100 -0.706847
vn -0.847719 -0.001973 -0.530442
vn -0.939268 0.070945 -0.335771
vn -0.972533 0.184518 -0.141889
vn -0.944257 0.327628 0.032223
vn -0.857209 0.486266 0.169524
vn -0.719908 0.644905 0.256573
vn -0.545796 0.788015 0.284849
vn -0.351914 0.901589 0.251584
vn -0.157243 0.974507 0.160035
vn 0.019162 0.999633 0.019163
vn 0.160035 0.974507 -0.157242
vn 0.251584 0.901588 -0.351915
vn 0.284848 0.788016 -0.545796
vn 0.256572 0.644907 -0.719907
vn 0.169523 0.486268 -0.857208
vn -0.281332 0.386260 -0.878439
vn -0.156171 0.489142 -0.858109
vn -0.420704 0.304618 -0.854527
vn -0.560642 0.252201 -0.788717
vn -0.687452 0.234139 -0.687451
vn -0.788717 0.252201 -0.560643
vn -0.854527 0.304618 -0.420704
vn -0.878439 0.386260 -0.281332
vn -0.858113 0.489133 -0.156173
vn -0.795538 0.603171 -0.057474
vn -0.696840 0.717208 0.005100
vn -0.571679 0.820083 0.025427
vn -0.432309 0.901724 0.001514
vn -0.292371 0.954141 -0.064296
vn -0.165561 0.972203 -0.165562
vn -0.064296 0.954141 -0.292370
vn 0.001511 0.901721 -0.432315
vn 0.025421 0.820079 -0.571685
vn 0.005091 0.717210 -0.696839
vn -0.057477 0.603178 -0.795533
vn 0.734061 -0.648601 0.201176
vn -0.499996 0.707108 -0.500002
s 1
g pSphere2
usemtl lambert3SG
f 1/2/1 2/3/2 20/21/3
f 2/3/2 3/4/4 21/22/5 20/21/3
f 3/4/4 4/5/6 22/23/7 21/22/5
f 4/5/6 5/6/8 23/24/9 22/23/7
f 5/6/8 6/7/10 23/24/9
f 19/1/11 1/2/1 25/26/12 24/25/13
f 1/2/1 20/21/3 26/27/14 25/26/12
f 20/21/3 21/22/5 27/28/15 26/27/14
f 21/22/5 22/23/7 28/29/16 27/28/15
f 22/23/7 23/24/9 29/30/17 28/29/16
f 23/24/9 6/7/10 30/31/18 29/30/17
f 6/7/10 7/8/19 31/32/20 30/31/18
f 7/8/19 8/9/21 32/33/22 31/32/20
f 8/9/21 9/10/23 33/34/24 32/33/22
f 9/10/23 10/11/25 34/35/26 33/34/24
f 10/11/25 11/12/27 35/36/28 34/35/26
f 11/12/27 12/13/29 36/37/30 35/36/28
f 12/13/29 13/14/31 37/38/32 36/37/30
f 13/14/31 14/15/33 38/39/34 37/38/32
f 14/15/33 15/16/35 39/40/36 38/39/34
f 15/16/35 16/17/37 40/41/38 39/40/36
f 16/17/37 17/18/39 41/42/40 40/41/38
f 17/18/39 18/19/41 42/43/42 41/42/40
f 18/19/41 19/20/11 43/44/43 42/43/42
f 19/20/11 24/45/13 43/44/43
f 24/25/13 25/26/12 45/47/44 44/46/45
f 25/26/12 26/27/14 46/48/46 45/47/44
f 26/27/14 27/28/15 47/49/47 46/48/46
f 27/28/15 28/29/16 48/50/48 47/49/47
f 28/29/16 29/30/17 49/51/49 48/50/48
f 29/30/17 30/31/18 50/52/50 49/51/49
f 30/31/18 31/32/20 51/53/51 50/52/50
f 31/32/20 32/33/22 52/54/52 51/53/51
f 32/33/22 33/34/24 53/55/53 52/54/52
f 33/34/24 34/35/26 54/56/54 53/55/53
f 34/35/26 35/36/28 55/57/55 54/56/54
f 35/36/28 36/37/30 56/58/56 55/57/55
f 36/37/30 37/38/32 57/59/57 56/58/56
f 37/38/32 38/39/34 58/60/58 57/59/57
f 38/39/34 39/40/36 59/61/59 58/60/58
f 39/40/36 40/41/38 60/62/60 59/61/59
f 40/41/38 41/42/40 61/63/61 60/62/60
f 41/42/40 42/43/42 62/64/62 61/63/61
f 42/43/42 43/44/43 63/65/63 62/64/62
f 43/44/43 24/45/13 44/66/45 63/65/63
f 44/46/45 45/47/44 65/68/64 64/67/65
f 45/47/44 46/48/46 66/69/66 65/68/64
f 46/48/46 47/49/47 67/70/67 66/69/66
f 47/49/47 48/50/48 68/71/68 67/70/67
f 48/50/48 49/51/49 69/72/69 68/71/68
f 49/51/49 50/52/50 70/73/70 69/72/69
f 50/52/50 51/53/51 71/74/71 70/73/70
f 51/53/51 52/54/52 72/75/72 71/74/71
f 52/54/52 53/55/53 73/76/73 72/75/72
f 53/55/53 54/56/54 74/77/74 73/76/73
f 54/56/54 55/57/55 75/78/75 74/77/74
f 55/57/55 56/58/56 76/79/76 75/78/75
f 56/58/56 57/59/57 77/80/77 76/79/76
f 57/59/57 58/60/58 78/81/78 77/80/77
f 58/60/58 59/61/59 79/82/79 78/81/78
f 59/61/59 60/62/60 80/83/80 79/82/79
f 60/62/60 61/63/61 81/84/81 80/83/80
f 61/63/61 62/64/62 82/85/82 81/84/81
f 62/64/62 63/65/63 83/86/83 82/85/82
f 63/65/63 44/66/45 64/87/65 83/86/83
f 64/67/65 65/68/64 85/89/84 84/88/85
f 65/68/64 66/69/66 86/90/86 85/89/84
f 66/69/66 67/70/67 87/91/87 86/90/86
f 67/70/67 68/71/68 88/92/88 87/91/87
f 68/71/68 69/72/69 89/93/89 88/92/88
f 69/72/69 70/73/70 90/94/90 89/93/89
f 70/73/70 71/74/71 91/95/91 90/94/90
f 71/74/71 72/75/72 92/96/92 91/95/91
f 72/75/72 73/76/73 93/97/93 92/96/92
f 73/76/73 74/77/74 94/98/94 93/97/93
f 74/77/74 75/78/75 95/99/95 94/98/94
f 75/78/75 76/79/76 96/100/96 95/99/95
f 76/79/76 77/80/77 97/101/97 96/100/96
f 77/80/77 78/81/78 98/102/98 97/101/97
f 78/81/78 79/82/79 99/103/99 98/102/98
f 79/82/79 80/83/80 100/104/100 99/103/99
f 80/83/80 81/84/81 101/105/101 100/104/100
f 81/84/81 82/85/82 102/106/102 101/105/101
f 82/85/82 83/86/83 103/107/103 102/106/102
f 83/86/83 64/87/65 84/108/85 103/107/103
f 84/88/85 85/89/84 105/110/104 104/109/105
f 85/89/84 86/90/86 106/111/106 105/110/104
f 86/90/86 87/91/87 107/112/107 106/111/106
f 87/91/87 88/92/88 108/113/108 107/112/107
f 88/92/88 89/93/89 109/114/109 108/113/108
f 89/93/89 90/94/90 110/115/110 109/114/109
f 90/94/90 91/95/91 111/116/111 110/115/110
f 91/95/91 92/96/92 112/117/112 111/116/111
f 92/96/92 93/97/93 113/118/113 112/117/112
f 93/97/93 94/98/94 114/119/114 113/118/113
f 94/98/94 95/99/95 115/120/115 114/119/114
f 95/99/95 96/100/96 116/121/116 115/120/115
f 96/100/96 97/101/97 117/122/117 116/121/116
f 97/101/97 98/102/98 118/123/118 117/122/117
f 98/102/98 99/103/99 119/124/119 118/123/118
f 99/103/99 100/104/100 120/125/120 119/124/119
f 100/104/100 101/105/101 121/126/121 120/125/120
f 101/105/101 102/106/102 122/127/122 121/126/121
f 102/106/102 103/107/103 123/128/123 122/127/122
f 103/107/103 84/108/85 104/129/105 123/128/123
f 104/109/105 105/110/104 125/131/124 124/130/125
f 105/110/104 106/111/106 126/132/126 125/131/124
f 106/111/106 107/112/107 127/133/127 126/132/126
f 107/112/107 108/113/108 128/134/128 127/133/127
f 108/113/108 109/114/109 129/135/129 128/134/128
f 109/114/109 110/115/110 130/136/130 129/135/129
f 110/115/110 111/116/111 131/137/131 130/136/130
f 111/116/111 112/117/112 132/138/132 131/137/131
f 112/117/112 113/118/113 133/139/133 132/138/132
f 113/118/113 114/119/114 134/140/134 133/139/133
f 114/119/114 115/120/115 135/141/135 134/140/134
f 115/120/115 116/121/116 136/142/136 135/141/135
f 116/121/116 117/122/117 137/143/137 136/142/136
f 117/122/117 118/123/118 138/144/138 137/143/137
f 118/123/118 119/124/119 139/145/139 138/144/138
f 119/124/119 120/125/120 140/146/140 139/145/139
f 120/125/120 121/126/121 141/147/141 140/146/140
f 121/126/121 122/127/122 142/148/142 141/147/141
f 122/127/122 123/128/123 143/149/143 142/148/142
f 123/128/123 104/129/105 124/150/125 143/149/143
f 1/2/1 19/1/11 144/151/144
f 2/3/2 1/2/1 144/152/144
f 3/4/4 2/3/2 144/153/144
f 4/5/6 3/4/4 144/154/144
f 5/6/8 4/5/6 144/155/144
f 6/7/10 5/6/8 144/156/144
f 7/8/19 6/7/10 144/157/144
f 8/9/21 7/8/19 144/158/144
f 9/10/23 8/9/21 144/159/144
f 10/11/25 9/10/23 144/160/144
f 11/12/27 10/11/25 144/161/144
f 12/13/29 11/12/27 144/162/144
f 13/14/31 12/13/29 144/163/144
f 14/15/33 13/14/31 144/164/144
f 15/16/35 14/15/33 144/165/144
f 16/17/37 15/16/35 144/166/144
f 17/18/39 16/17/37 144/167/144
f 18/19/41 17/18/39 144/168/144
f 19/20/11 18/19/41 144/169/144
f 124/130/125 125/131/124 145/170/145
f 125/131/124 126/132/126 145/171/145
f 126/132/126 127/133/127 145/172/145
f 127/133/127 128/134/128 145/173/145
f 128/134/128 129/135/129 145/174/145
f 129/135/129 130/136/130 145/175/145
f 130/136/130 131/137/131 145/176/145
f 131/137/131 132/138/132 145/177/145
f 132/138/132 133/139/133 145/178/145
f 133/139/133 134/140/134 145/179/145
f 134/140/134 135/141/135 145/180/145
f 135/141/135 136/142/136 145/181/145
f 136/142/136 137/143/137 145/182/145
f 137/143/137 138/144/138 145/183/145
f 138/144/138 139/145/139 145/184/145
f 139/145/139 140/146/140 145/185/145
f 140/146/140 141/147/141 145/186/145
f 141/147/141 142/148/142 145/187/145
f 142/148/142 143/149/143 145/188/145
f 143/149/143 124/150/125 145/189/145
