# This file uses centimeters as units for non-parametric coordinates.

mtllib Gantry.mtl
g default
v -2.500000 0.100000 0.050000
v 0.000000 0.100000 0.050000
v 2.500000 0.100000 0.050000
v -2.500000 1.100000 0.050000
v 0.000000 1.100000 0.050000
v 2.500000 1.100000 0.050000
v -2.500000 2.100000 0.050000
v 0.000000 2.100000 0.050000
v 2.500000 2.100000 0.050000
v -2.500000 2.100000 0.000000
v 0.000000 2.100000 0.000000
v 2.500000 2.100000 0.000000
v -2.500000 0.100000 0.000000
v 0.000000 0.100000 0.000000
v 2.500000 0.100000 0.000000
v 2.500000 1.100000 0.000000
v -2.500000 1.100000 0.000000
v -2.500000 0.100000 -0.050000
v 0.000000 0.100000 -0.050000
v 0.000000 1.100000 -0.050000
v -2.500000 1.100000 -0.050000
v 2.500000 0.100000 -0.050000
v 2.500000 1.100000 -0.050000
v 0.000000 2.100000 -0.050000
v -2.500000 2.100000 -0.050000
v 2.500000 2.100000 -0.050000
v 0.000000 2.100000 0.000000
v -2.500000 2.100000 0.000000
v 2.500000 2.100000 0.000000
v -2.500000 0.100000 0.000000
v 0.000000 0.100000 0.000000
v 2.500000 0.100000 0.000000
v 2.500000 1.100000 0.000000
v -2.500000 1.100000 0.000000
vt 0.204759 0.569035
vt 0.250000 0.569035
vt 0.295241 0.569035
vt 0.204759 0.614276
vt 0.250000 0.614276
vt 0.295241 0.614276
vt 0.204759 0.659517
vt 0.250000 0.659517
vt 0.295241 0.659517
vt 0.204759 0.704759
vt 0.250000 0.704759
vt 0.295241 0.704759
vt 0.204759 0.885724
vt 0.250000 0.885724
vt 0.295241 0.885724
vt 0.204759 0.930965
vt 0.250000 0.930965
vt 0.295241 0.930965
vt 0.340483 0.569035
vt 0.340483 0.614276
vt 0.340483 0.659517
vt 0.159517 0.569035
vt 0.159517 0.614276
vt 0.159517 0.659517
vt 0.204759 0.569035
vt 0.250000 0.569035
vt 0.250000 0.614276
vt 0.204759 0.614276
vt 0.295241 0.569035
vt 0.295241 0.614276
vt 0.250000 0.659517
vt 0.204759 0.659517
vt 0.295241 0.659517
vt 0.250000 0.704759
vt 0.204759 0.704759
vt 0.295241 0.704759
vt 0.204759 0.885724
vt 0.250000 0.885724
vt 0.250000 0.930965
vt 0.204759 0.930965
vt 0.295241 0.885724
vt 0.295241 0.930965
vt 0.340483 0.569035
vt 0.340483 0.614276
vt 0.340483 0.659517
vt 0.159517 0.569035
vt 0.159517 0.614276
vt 0.159517 0.659517
vn 0.000000 0.000000 1.000000
vn 0.000000 0.000000 1.000000
vn 0.000000 0.000000 1.000000
vn 0.000000 0.000000 1.000000
vn 0.000000 0.000000 1.000000
vn 0.000000 0.000000 1.000000
vn 0.000000 0.000000 1.000000
vn 0.000000 0.000000 1.000000
vn 0.000000 0.000000 1.000000
vn 0.000000 1.000000 0.000000
vn 0.000000 1.000000 0.000000
vn 0.000000 1.000000 0.000000
vn 0.000000 1.000000 0.000000
vn 0.000000 1.000000 0.000000
vn 0.000000 1.000000 0.000000
vn 0.000000 -1.000000 0.000000
vn 0.000000 -1.000000 0.000000
vn 0.000000 -1.000000 0.000000
vn 0.000000 -1.000000 0.000000
vn 0.000000 -1.000000 0.000000
vn 0.000000 -1.000000 0.000000
vn 1.000000 0.000000 0.000000
vn 1.000000 0.000000 0.000000
vn 1.000000 0.000000 0.000000
vn 1.000000 0.000000 0.000000
vn 1.000000 0.000000 0.000000
vn 1.000000 0.000000 0.000000
vn -1.000000 0.000000 0.000000
vn -1.000000 0.000000 0.000000
vn -1.000000 0.000000 0.000000
vn -1.000000 0.000000 0.000000
vn -1.000000 0.000000 0.000000
vn -1.000000 0.000000 0.000000
vn 0.000000 0.000000 -1.000000
vn 0.000000 0.000000 -1.000000
vn 0.000000 0.000000 -1.000000
vn 0.000000 0.000000 -1.000000
vn 0.000000 0.000000 -1.000000
vn 0.000000 0.000000 -1.000000
vn 0.000000 0.000000 -1.000000
vn 0.000000 0.000000 -1.000000
vn 0.000000 0.000000 -1.000000
vn 0.000000 1.000000 0.000000
vn 0.000000 1.000000 0.000000
vn 0.000000 1.000000 0.000000
vn 0.000000 1.000000 0.000000
vn 0.000000 1.000000 0.000000
vn 0.000000 1.000000 0.000000
vn 0.000000 -1.000000 0.000000
vn 0.000000 -1.000000 0.000000
vn 0.000000 -1.000000 0.000000
vn 0.000000 -1.000000 0.000000
vn 0.000000 -1.000000 0.000000
vn 0.000000 -1.000000 0.000000
vn 1.000000 0.000000 0.000000
vn 1.000000 0.000000 0.000000
vn 1.000000 0.000000 0.000000
vn 1.000000 0.000000 0.000000
vn 1.000000 0.000000 0.000000
vn 1.000000 0.000000 0.000000
vn -1.000000 0.000000 0.000000
vn -1.000000 0.000000 0.000000
vn -1.000000 0.000000 0.000000
vn -1.000000 0.000000 0.000000
vn -1.000000 0.000000 0.000000
vn -1.000000 0.000000 0.000000
s 1
g pCube1
usemtl initialShadingGroup
f 1/1/1 2/2/2 5/5/3 4/4/4
f 2/2/2 3/3/5 6/6/6 5/5/3
f 4/4/4 5/5/3 8/8/7 7/7/8
f 5/5/3 6/6/6 9/9/9 8/8/7
s 2
f 7/7/10 8/8/11 11/11/12 10/10/13
f 8/8/11 9/9/14 12/12/15 11/11/12
s 3
f 13/13/16 14/14/17 2/17/18 1/16/19
f 14/14/17 15/15/20 3/18/21 2/17/18
s 4
f 3/3/22 15/19/23 16/20/24 6/6/25
f 6/6/25 16/20/24 12/21/26 9/9/27
s 5
f 13/22/28 1/1/29 4/4/30 17/23/31
f 17/23/31 4/4/30 7/7/32 10/24/33
s 6
f 18/25/34 21/28/35 20/27/36 19/26/37
f 19/26/37 20/27/36 23/30/38 22/29/39
f 21/28/35 25/32/40 24/31/41 20/27/36
f 20/27/36 24/31/41 26/33/42 23/30/38
s 7
f 25/32/43 28/35/44 27/34/45 24/31/46
f 24/31/46 27/34/45 29/36/47 26/33/48
s 8
f 30/37/49 18/40/50 19/39/51 31/38/52
f 31/38/52 19/39/51 22/42/53 32/41/54
s 9
f 22/29/55 23/30/56 33/44/57 32/43/58
f 23/30/56 26/33/59 29/45/60 33/44/57
s 10
f 30/46/61 34/47/62 21/28/63 18/25/64
f 34/47/62 28/48/65 25/32/66 21/28/63
g default
v 2.300000 0.000000 0.000000
v 2.309789 0.000000 0.061803
v 2.338197 0.000000 0.117557
v 2.382443 0.000000 0.161803
v 2.438197 0.000000 0.190211
v 2.500000 0.000000 0.200000
v 2.561803 0.000000 0.190211
v 2.617557 0.000000 0.161803
v 2.661803 0.000000 0.117557
v 2.690211 0.000000 0.061803
v 2.700000 0.000000 0.000000
v 2.300000 2.200000 0.000000
v 2.309789 2.200000 0.061803
v 2.338197 2.200000 0.117557
v 2.382443 2.200000 0.161803
v 2.438197 2.200000 0.190211
v 2.500000 2.200000 0.200000
v 2.561803 2.200000 0.190211
v 2.617557 2.200000 0.161803
v 2.661803 2.200000 0.117557
v 2.690211 2.200000 0.061803
v 2.700000 2.200000 0.000000
v 2.500000 0.000000 0.000000
v 2.500000 2.200000 0.000000
v 2.300000 0.000000 -0.000000
v 2.309789 0.000000 -0.061803
v 2.309789 2.200000 -0.061803
v 2.300000 2.200000 -0.000000
v 2.338197 0.000000 -0.117557
v 2.338197 2.200000 -0.117557
v 2.382443 0.000000 -0.161803
v 2.382443 2.200000 -0.161803
v 2.438197 0.000000 -0.190211
v 2.438197 2.200000 -0.190211
v 2.500000 0.000000 -0.200000
v 2.500000 2.200000 -0.200000
v 2.561803 0.000000 -0.190211
v 2.561803 2.200000 -0.190211
v 2.617557 0.000000 -0.161803
v 2.617557 2.200000 -0.161803
v 2.661803 0.000000 -0.117557
v 2.661803 2.200000 -0.117557
v 2.690211 0.000000 -0.061803
v 2.690211 2.200000 -0.061803
v 2.700000 0.000000 0.000000
v 2.700000 2.200000 0.000000
v 2.500000 0.000000 0.000000
v 2.500000 2.200000 0.000000
vt 0.760502 0.113894
vt 0.762435 0.126100
vt 0.768045 0.137111
vt 0.776784 0.145849
vt 0.787794 0.151459
vt 0.800000 0.153392
vt 0.812205 0.151459
vt 0.823216 0.145849
vt 0.831955 0.137111
vt 0.837565 0.126100
vt 0.839498 0.113894
vt 0.796840 0.153392
vt 0.800000 0.153392
vt 0.803160 0.153392
vt 0.806320 0.153392
vt 0.809479 0.153392
vt 0.812639 0.153392
vt 0.815799 0.153392
vt 0.818959 0.153392
vt 0.822119 0.153392
vt 0.825279 0.153392
vt 0.828439 0.153392
vt 0.796840 0.248425
vt 0.800000 0.248425
vt 0.803160 0.248425
vt 0.806320 0.248425
vt 0.809479 0.248425
vt 0.812639 0.248425
vt 0.815799 0.248425
vt 0.818959 0.248425
vt 0.822119 0.248425
vt 0.825279 0.248425
vt 0.828439 0.248425
vt 0.837565 0.275480
vt 0.831955 0.264469
vt 0.823216 0.255731
vt 0.812206 0.250121
vt 0.800000 0.248188
vt 0.787794 0.250121
vt 0.776784 0.255731
vt 0.768045 0.264469
vt 0.762435 0.275480
vt 0.760502 0.287686
vt 0.839498 0.287686
vt 0.800000 0.112314
vt 0.800000 0.286106
vt 0.796840 0.153392
vt 0.800000 0.153392
vt 0.800000 0.248425
vt 0.796840 0.248425
vt 0.803160 0.153392
vt 0.803160 0.248425
vt 0.806320 0.153392
vt 0.806320 0.248425
vt 0.809479 0.153392
vt 0.809479 0.248425
vt 0.812639 0.153392
vt 0.812639 0.248425
vt 0.815799 0.153392
vt 0.815799 0.248425
vt 0.818959 0.153392
vt 0.818959 0.248425
vt 0.822119 0.153392
vt 0.822119 0.248425
vt 0.825279 0.153392
vt 0.825279 0.248425
vt 0.828439 0.153392
vt 0.828439 0.248425
vt 0.762435 0.126100
vt 0.760502 0.113894
vt 0.800000 0.112314
vt 0.768045 0.137111
vt 0.776784 0.145849
vt 0.787794 0.151459
vt 0.800000 0.153392
vt 0.812205 0.151459
vt 0.823216 0.145849
vt 0.831955 0.137111
vt 0.837565 0.126100
vt 0.839498 0.113894
vt 0.760502 0.287686
vt 0.762435 0.275480
vt 0.800000 0.286106
vt 0.768045 0.264469
vt 0.776784 0.255731
vt 0.787794 0.250121
vt 0.800000 0.248188
vt 0.812206 0.250121
vt 0.823216 0.255731
vt 0.831955 0.264469
vt 0.837565 0.275480
vt 0.839498 0.287686
vn -0.987688 0.000000 0.156435
vn -0.951057 0.000000 0.309017
vn -0.951057 0.000000 0.309017
vn -0.987688 0.000000 0.156435
vn -0.809017 0.000000 0.587785
vn -0.809017 0.000000 0.587785
vn -0.587785 0.000000 0.809017
vn -0.587785 0.000000 0.809017
vn -0.309017 0.000000 0.951057
vn -0.309017 0.000000 0.951057
vn 0.000000 0.000000 1.000000
vn 0.000000 0.000000 1.000000
vn 0.309017 0.000000 0.951057
vn 0.309017 0.000000 0.951057
vn 0.587785 0.000000 0.809017
vn 0.587785 0.000000 0.809017
vn 0.809017 0.000000 0.587785
vn 0.809017 0.000000 0.587785
vn 0.951057 0.000000 0.309017
vn 0.951057 0.000000 0.309017
vn 0.987688 0.000000 0.156435
vn 0.987688 0.000000 0.156435
vn 0.000000 -1.000000 0.000000
vn 0.000000 -1.000000 0.000000
vn 0.000000 -1.000000 0.000000
vn 0.000000 -1.000000 0.000000
vn 0.000000 -1.000000 0.000000
vn 0.000000 -1.000000 0.000000
vn 0.000000 -1.000000 0.000000
vn 0.000000 -1.000000 0.000000
vn 0.000000 -1.000000 0.000000
vn 0.000000 -1.000000 0.000000
vn 0.000000 -1.000000 0.000000
vn 0.000000 -1.000000 0.000000
vn 0.000000 1.000000 0.000000
vn 0.000000 1.000000 0.000000
vn 0.000000 1.000000 0.000000
vn 0.000000 1.000000 0.000000
vn 0.000000 1.000000 0.000000
vn 0.000000 1.000000 0.000000
vn 0.000000 1.000000 0.000000
vn 0.000000 1.000000 0.000000
vn 0.000000 1.000000 0.000000
vn 0.000000 1.000000 0.000000
vn 0.000000 1.000000 0.000000
vn 0.000000 1.000000 0.000000
vn -0.987688 0.000000 -0.156435
vn -0.987688 0.000000 -0.156435
vn -0.951057 0.000000 -0.309017
vn -0.951057 0.000000 -0.309017
vn -0.809017 0.000000 -0.587785
vn -0.809017 0.000000 -0.587785
vn -0.587785 0.000000 -0.809017
vn -0.587785 0.000000 -0.809017
vn -0.309017 0.000000 -0.951057
vn -0.309017 0.000000 -0.951057
vn 0.000000 0.000000 -1.000000
vn 0.000000 0.000000 -1.000000
vn 0.309017 0.000000 -0.951057
vn 0.309017 0.000000 -0.951057
vn 0.587785 0.000000 -0.809017
vn 0.587785 0.000000 -0.809017
vn 0.809017 0.000000 -0.587785
vn 0.809017 0.000000 -0.587785
vn 0.951057 0.000000 -0.309017
vn 0.951057 0.000000 -0.309017
vn 0.987688 0.000000 -0.156435
vn 0.987688 0.000000 -0.156435
vn 0.000000 -1.000000 0.000000
vn 0.000000 -1.000000 0.000000
vn 0.000000 -1.000000 0.000000
vn 0.000000 -1.000000 0.000000
vn 0.000000 -1.000000 0.000000
vn 0.000000 -1.000000 0.000000
vn 0.000000 -1.000000 0.000000
vn 0.000000 -1.000000 0.000000
vn 0.000000 -1.000000 0.000000
vn 0.000000 -1.000000 0.000000
vn 0.000000 -1.000000 0.000000
vn 0.000000 -1.000000 0.000000
vn 0.000000 1.000000 0.000000
vn 0.000000 1.000000 0.000000
vn 0.000000 1.000000 0.000000
vn 0.000000 1.000000 0.000000
vn 0.000000 1.000000 0.000000
vn 0.000000 1.000000 0.000000
vn 0.000000 1.000000 0.000000
vn 0.000000 1.000000 0.000000
vn 0.000000 1.000000 0.000000
vn 0.000000 1.000000 0.000000
vn 0.000000 1.000000 0.000000
vn 0.000000 1.000000 0.000000
s 1
g pCylinder1
usemtl initialShadingGroup
f 35/60/67 36/61/68 47/72/69 46/71/70
f 36/61/68 37/62/71 48/73/72 47/72/69
f 37/62/71 38/63/73 49/74/74 48/73/72
f 38/63/73 39/64/75 50/75/76 49/74/74
f 39/64/75 40/65/77 51/76/78 50/75/76
f 40/65/77 41/66/79 52/77/80 51/76/78
f 41/66/79 42/67/81 53/78/82 52/77/80
f 42/67/81 43/68/83 54/79/84 53/78/82
f 43/68/83 44/69/85 55/80/86 54/79/84
f 44/69/85 45/70/87 56/81/88 55/80/86
s 2
f 36/50/89 35/49/90 57/93/91
f 37/51/92 36/50/89 57/93/91
f 38/52/93 37/51/92 57/93/91
f 39/53/94 38/52/93 57/93/91
f 40/54/95 39/53/94 57/93/91
f 41/55/96 40/54/95 57/93/91
f 42/56/97 41/55/96 57/93/91
f 43/57/98 42/56/97 57/93/91
f 44/58/99 43/57/98 57/93/91
f 45/59/100 44/58/99 57/93/91
s 3
f 46/91/101 47/90/102 58/94/103
f 47/90/102 48/89/104 58/94/103
f 48/89/104 49/88/105 58/94/103
f 49/88/105 50/87/106 58/94/103
f 50/87/106 51/86/107 58/94/103
f 51/86/107 52/85/108 58/94/103
f 52/85/108 53/84/109 58/94/103
f 53/84/109 54/83/110 58/94/103
f 54/83/110 55/82/111 58/94/103
f 55/82/111 56/92/112 58/94/103
s 4
f 59/95/113 62/98/114 61/97/115 60/96/116
f 60/96/116 61/97/115 64/100/117 63/99/118
f 63/99/118 64/100/117 66/102/119 65/101/120
f 65/101/120 66/102/119 68/104/121 67/103/122
f 67/103/122 68/104/121 70/106/123 69/105/124
f 69/105/124 70/106/123 72/108/125 71/107/126
f 71/107/126 72/108/125 74/110/127 73/109/128
f 73/109/128 74/110/127 76/112/129 75/111/130
f 75/111/130 76/112/129 78/114/131 77/113/132
f 77/113/132 78/114/131 80/116/133 79/115/134
s 5
f 60/117/135 81/119/136 59/118/137
f 63/120/138 81/119/136 60/117/135
f 65/121/139 81/119/136 63/120/138
f 67/122/140 81/119/136 65/121/139
f 69/123/141 81/119/136 67/122/140
f 71/124/142 81/119/136 69/123/141
f 73/125/143 81/119/136 71/124/142
f 75/126/144 81/119/136 73/125/143
f 77/127/145 81/119/136 75/126/144
f 79/128/146 81/119/136 77/127/145
s 6
f 62/129/147 82/131/148 61/130/149
f 61/130/149 82/131/148 64/132/150
f 64/132/150 82/131/148 66/133/151
f 66/133/151 82/131/148 68/134/152
f 68/134/152 82/131/148 70/135/153
f 70/135/153 82/131/148 72/136/154
f 72/136/154 82/131/148 74/137/155
f 74/137/155 82/131/148 76/138/156
f 76/138/156 82/131/148 78/139/157
f 78/139/157 82/131/148 80/140/158
g default
v -2.700000 0.000000 0.000000
v -2.690211 0.000000 0.061803
v -2.661803 0.000000 0.117557
v -2.617557 0.000000 0.161803
v -2.561803 0.000000 0.190211
v -2.500000 0.000000 0.200000
v -2.438197 0.000000 0.190211
v -2.382443 0.000000 0.161803
v -2.338197 0.000000 0.117557
v -2.309789 0.000000 0.061803
v -2.300000 0.000000 0.000000
v -2.700000 2.200000 0.000000
v -2.690211 2.200000 0.061803
v -2.661803 2.200000 0.117557
v -2.617557 2.200000 0.161803
v -2.561803 2.200000 0.190211
v -2.500000 2.200000 0.200000
v -2.438197 2.200000 0.190211
v -2.382443 2.200000 0.161803
v -2.338197 2.200000 0.117557
v -2.309789 2.200000 0.061803
v -2.300000 2.200000 0.000000
v -2.500000 0.000000 0.000000
v -2.500000 2.200000 0.000000
v -2.700000 0.000000 0.000000
v -2.690211 0.000000 -0.061803
v -2.690211 2.200000 -0.061803
v -2.700000 2.200000 0.000000
v -2.661803 0.000000 -0.117557
v -2.661803 2.200000 -0.117557
v -2.617557 0.000000 -0.161803
v -2.617557 2.200000 -0.161803
v -2.561803 0.000000 -0.190211
v -2.561803 2.200000 -0.190211
v -2.500000 0.000000 -0.200000
v -2.500000 2.200000 -0.200000
v -2.438197 0.000000 -0.190211
v -2.438197 2.200000 -0.190211
v -2.382443 0.000000 -0.161803
v -2.382443 2.200000 -0.161803
v -2.338197 0.000000 -0.117557
v -2.338197 2.200000 -0.117557
v -2.309789 0.000000 -0.061803
v -2.309789 2.200000 -0.061803
v -2.300000 0.000000 0.000000
v -2.300000 2.200000 0.000000
v -2.500000 0.000000 -0.000000
v -2.500000 2.200000 -0.000000
vt 0.760502 0.113894
vt 0.762435 0.126100
vt 0.768045 0.137111
vt 0.776784 0.145849
vt 0.787794 0.151459
vt 0.800000 0.153392
vt 0.812205 0.151459
vt 0.823216 0.145849
vt 0.831955 0.137111
vt 0.837565 0.126100
vt 0.839498 0.113894
vt 0.796840 0.153392
vt 0.800000 0.153392
vt 0.803160 0.153392
vt 0.806320 0.153392
vt 0.809479 0.153392
vt 0.812639 0.153392
vt 0.815799 0.153392
vt 0.818959 0.153392
vt 0.822119 0.153392
vt 0.825279 0.153392
vt 0.828439 0.153392
vt 0.796840 0.248425
vt 0.800000 0.248425
vt 0.803160 0.248425
vt 0.806320 0.248425
vt 0.809479 0.248425
vt 0.812639 0.248425
vt 0.815799 0.248425
vt 0.818959 0.248425
vt 0.822119 0.248425
vt 0.825279 0.248425
vt 0.828439 0.248425
vt 0.837565 0.275480
vt 0.831955 0.264469
vt 0.823216 0.255731
vt 0.812206 0.250121
vt 0.800000 0.248188
vt 0.787794 0.250121
vt 0.776784 0.255731
vt 0.768045 0.264469
vt 0.762435 0.275480
vt 0.760502 0.287686
vt 0.839498 0.287686
vt 0.800000 0.112314
vt 0.800000 0.286106
vt 0.796840 0.153392
vt 0.800000 0.153392
vt 0.800000 0.248425
vt 0.796840 0.248425
vt 0.803160 0.153392
vt 0.803160 0.248425
vt 0.806320 0.153392
vt 0.806320 0.248425
vt 0.809479 0.153392
vt 0.809479 0.248425
vt 0.812639 0.153392
vt 0.812639 0.248425
vt 0.815799 0.153392
vt 0.815799 0.248425
vt 0.818959 0.153392
vt 0.818959 0.248425
vt 0.822119 0.153392
vt 0.822119 0.248425
vt 0.825279 0.153392
vt 0.825279 0.248425
vt 0.828439 0.153392
vt 0.828439 0.248425
vt 0.762435 0.126100
vt 0.760502 0.113894
vt 0.800000 0.112314
vt 0.768045 0.137111
vt 0.776784 0.145849
vt 0.787794 0.151459
vt 0.800000 0.153392
vt 0.812205 0.151459
vt 0.823216 0.145849
vt 0.831955 0.137111
vt 0.837565 0.126100
vt 0.839498 0.113894
vt 0.760502 0.287686
vt 0.762435 0.275480
vt 0.800000 0.286106
vt 0.768045 0.264469
vt 0.776784 0.255731
vt 0.787794 0.250121
vt 0.800000 0.248188
vt 0.812206 0.250121
vt 0.823216 0.255731
vt 0.831955 0.264469
vt 0.837565 0.275480
vt 0.839498 0.287686
vn -0.987688 0.000000 0.156435
vn -0.951057 0.000000 0.309017
vn -0.951057 0.000000 0.309017
vn -0.987688 0.000000 0.156435
vn -0.809017 0.000000 0.587785
vn -0.809017 0.000000 0.587785
vn -0.587785 0.000000 0.809017
vn -0.587785 0.000000 0.809017
vn -0.309017 0.000000 0.951057
vn -0.309017 0.000000 0.951057
vn 0.000000 0.000000 1.000000
vn 0.000000 0.000000 1.000000
vn 0.309017 0.000000 0.951057
vn 0.309017 0.000000 0.951057
vn 0.587785 0.000000 0.809017
vn 0.587785 0.000000 0.809017
vn 0.809017 0.000000 0.587785
vn 0.809017 0.000000 0.587785
vn 0.951057 0.000000 0.309017
vn 0.951057 0.000000 0.309017
vn 0.987688 0.000000 0.156435
vn 0.987688 0.000000 0.156435
vn 0.000000 -1.000000 0.000000
vn 0.000000 -1.000000 0.000000
vn 0.000000 -1.000000 0.000000
vn 0.000000 -1.000000 0.000000
vn 0.000000 -1.000000 0.000000
vn 0.000000 -1.000000 0.000000
vn 0.000000 -1.000000 0.000000
vn 0.000000 -1.000000 0.000000
vn 0.000000 -1.000000 0.000000
vn 0.000000 -1.000000 0.000000
vn 0.000000 -1.000000 0.000000
vn 0.000000 -1.000000 0.000000
vn 0.000000 1.000000 0.000000
vn 0.000000 1.000000 0.000000
vn 0.000000 1.000000 0.000000
vn 0.000000 1.000000 0.000000
vn 0.000000 1.000000 0.000000
vn 0.000000 1.000000 0.000000
vn 0.000000 1.000000 0.000000
vn 0.000000 1.000000 0.000000
vn 0.000000 1.000000 0.000000
vn 0.000000 1.000000 0.000000
vn 0.000000 1.000000 0.000000
vn 0.000000 1.000000 0.000000
vn -0.987688 0.000000 -0.156435
vn -0.987688 0.000000 -0.156435
vn -0.951057 0.000000 -0.309017
vn -0.951057 0.000000 -0.309017
vn -0.809017 0.000000 -0.587785
vn -0.809017 0.000000 -0.587785
vn -0.587785 0.000000 -0.809017
vn -0.587785 0.000000 -0.809017
vn -0.309017 0.000000 -0.951057
vn -0.309017 0.000000 -0.951057
vn 0.000000 0.000000 -1.000000
vn 0.000000 0.000000 -1.000000
vn 0.309017 0.000000 -0.951057
vn 0.309017 0.000000 -0.951057
vn 0.587785 0.000000 -0.809017
vn 0.587785 0.000000 -0.809017
vn 0.809017 0.000000 -0.587785
vn 0.809017 0.000000 -0.587785
vn 0.951057 0.000000 -0.309017
vn 0.951057 0.000000 -0.309017
vn 0.987688 0.000000 -0.156435
vn 0.987688 0.000000 -0.156435
vn 0.000000 -1.000000 0.000000
vn 0.000000 -1.000000 0.000000
vn 0.000000 -1.000000 0.000000
vn 0.000000 -1.000000 0.000000
vn 0.000000 -1.000000 0.000000
vn 0.000000 -1.000000 0.000000
vn 0.000000 -1.000000 0.000000
vn 0.000000 -1.000000 0.000000
vn 0.000000 -1.000000 0.000000
vn 0.000000 -1.000000 0.000000
vn 0.000000 -1.000000 0.000000
vn 0.000000 -1.000000 0.000000
vn 0.000000 1.000000 0.000000
vn 0.000000 1.000000 0.000000
vn 0.000000 1.000000 0.000000
vn 0.000000 1.000000 0.000000
vn 0.000000 1.000000 0.000000
vn 0.000000 1.000000 0.000000
vn 0.000000 1.000000 0.000000
vn 0.000000 1.000000 0.000000
vn 0.000000 1.000000 0.000000
vn 0.000000 1.000000 0.000000
vn 0.000000 1.000000 0.000000
vn 0.000000 1.000000 0.000000
s 1
g pCylinder2
usemtl initialShadingGroup
f 83/152/159 84/153/160 95/164/161 94/163/162
f 84/153/160 85/154/163 96/165/164 95/164/161
f 85/154/163 86/155/165 97/166/166 96/165/164
f 86/155/165 87/156/167 98/167/168 97/166/166
f 87/156/167 88/157/169 99/168/170 98/167/168
f 88/157/169 89/158/171 100/169/172 99/168/170
f 89/158/171 90/159/173 101/170/174 100/169/172
f 90/159/173 91/160/175 102/171/176 101/170/174
f 91/160/175 92/161/177 103/172/178 102/171/176
f 92/161/177 93/162/179 104/173/180 103/172/178
s 2
f 84/142/181 83/141/182 105/185/183
f 85/143/184 84/142/181 105/185/183
f 86/144/185 85/143/184 105/185/183
f 87/145/186 86/144/185 105/185/183
f 88/146/187 87/145/186 105/185/183
f 89/147/188 88/146/187 105/185/183
f 90/148/189 89/147/188 105/185/183
f 91/149/190 90/148/189 105/185/183
f 92/150/191 91/149/190 105/185/183
f 93/151/192 92/150/191 105/185/183
s 3
f 94/183/193 95/182/194 106/186/195
f 95/182/194 96/181/196 106/186/195
f 96/181/196 97/180/197 106/186/195
f 97/180/197 98/179/198 106/186/195
f 98/179/198 99/178/199 106/186/195
f 99/178/199 100/177/200 106/186/195
f 100/177/200 101/176/201 106/186/195
f 101/176/201 102/175/202 106/186/195
f 102/175/202 103/174/203 106/186/195
f 103/174/203 104/184/204 106/186/195
s 4
f 107/187/205 110/190/206 109/189/207 108/188/208
f 108/188/208 109/189/207 112/192/209 111/191/210
f 111/191/210 112/192/209 114/194/211 113/193/212
f 113/193/212 114/194/211 116/196/213 115/195/214
f 115/195/214 116/196/213 118/198/215 117/197/216
f 117/197/216 118/198/215 120/200/217 119/199/218
f 119/199/218 120/200/217 122/202/219 121/201/220
f 121/201/220 122/202/219 124/204/221 123/203/222
f 123/203/222 124/204/221 126/206/223 125/205/224
f 125/205/224 126/206/223 128/208/225 127/207/226
s 5
f 108/209/227 129/211/228 107/210/229
f 111/212/230 129/211/228 108/209/227
f 113/213/231 129/211/228 111/212/230
f 115/214/232 129/211/228 113/213/231
f 117/215/233 129/211/228 115/214/232
f 119/216/234 129/211/228 117/215/233
f 121/217/235 129/211/228 119/216/234
f 123/218/236 129/211/228 121/217/235
f 125/219/237 129/211/228 123/218/236
f 127/220/238 129/211/228 125/219/237
s 6
f 110/221/239 130/223/240 109/222/241
f 109/222/241 130/223/240 112/224/242
f 112/224/242 130/223/240 114/225/243
f 114/225/243 130/223/240 116/226/244
f 116/226/244 130/223/240 118/227/245
f 118/227/245 130/223/240 120/228/246
f 120/228/246 130/223/240 122/229/247
f 122/229/247 130/223/240 124/230/248
f 124/230/248 130/223/240 126/231/249
f 126/231/249 130/223/240 128/232/250
