# This file uses centimeters as units for non-parametric coordinates.

mtllib Rubble.mtl
g default
v 0.500000 0.017541 0.500000
v 0.500000 0.017541 -0.500000
v 0.500000 1.017541 0.500000
v 0.500000 0.339340 -0.185982
v -0.500000 1.017541 0.500000
v -0.500000 0.339340 -0.185982
v -0.500000 0.017541 0.500000
v -0.500000 0.017541 -0.500000
v 0.498341 0.705192 0.184115
v 0.559016 0.019263 -1.994933
v 0.496089 0.795139 0.155739
v 0.517009 0.719890 -0.868735
v -0.503273 0.764392 0.137590
v -0.482354 0.689143 -0.886884
v -0.501021 0.674445 0.165967
v -0.440346 -0.011484 -2.013082
v 1.522563 0.588886 -1.126455
v 1.522563 0.123791 -2.011716
v 1.522563 0.749322 -1.210745
v 1.522563 0.284227 -2.096005
v -1.522563 0.749322 -1.210745
v -1.522563 0.284227 -2.096005
v -1.522563 0.588886 -1.126455
v -1.522563 0.123791 -2.011716
v -1.221390 0.035930 0.080124
v -1.775414 0.035930 -0.752377
v 0.234110 1.552798 -0.888502
v -0.319914 1.552798 -1.721003
v 0.054959 1.800833 -0.769278
v -0.499065 1.800833 -1.601779
v -1.400541 0.283965 0.199347
v -1.954565 0.283965 -0.633153
v 1.863850 0.004001 -0.035002
v 1.863850 0.004001 -1.035002
v 0.753814 1.004001 -0.035002
v 0.753814 1.004001 -1.035002
v -0.044089 2.272236 -0.035002
v -0.044089 2.272236 -1.035002
v 0.863850 0.004001 -0.035002
v 0.863850 0.004001 -1.035002
v 1.478707 0.112232 0.743265
v 1.821725 0.636264 -0.036305
v 1.547565 0.217427 0.844275
v 1.890582 0.741459 0.064705
v -0.734556 1.711242 0.844275
v -0.391539 2.235274 0.064705
v -0.803414 1.606048 0.743265
v -0.460397 2.130079 -0.036305
v -0.664092 1.281831 1.036514
v -0.664092 1.281831 0.036514
v -1.010857 2.219784 1.036514
v -1.010857 2.219784 0.036514
v -1.776118 2.942159 1.036514
v -1.776118 2.942159 0.036514
v -0.716128 0.075023 1.036514
v -0.716128 0.075023 0.036514
v 0.982513 1.343825 0.231968
v 1.005482 1.508128 -1.365913
v 1.158893 1.319167 0.231968
v 1.181862 1.483470 -1.365913
v 1.311448 2.410423 0.655314
v 1.600568 2.433155 -1.298134
v 1.135068 2.435081 0.655314
v 1.424187 2.457812 -1.298134
v 0.913396 0.849416 -0.722372
v 1.089776 0.824759 -0.627582
v 1.555548 2.985746 -0.462823
v 1.392173 3.011426 -0.550698
vt 0.375000 0.000000
vt 0.625000 0.000000
vt 0.375000 0.250000
vt 0.625000 0.250000
vt 0.375000 0.500000
vt 0.625000 0.500000
vt 0.375000 0.750000
vt 0.625000 0.750000
vt 0.375000 1.000000
vt 0.625000 1.000000
vt 0.875000 0.000000
vt 0.875000 0.250000
vt 0.125000 0.000000
vt 0.125000 0.250000
vt 0.375000 0.000000
vt 0.625000 0.000000
vt 0.375000 0.250000
vt 0.625000 0.250000
vt 0.375000 0.500000
vt 0.625000 0.500000
vt 0.375000 0.750000
vt 0.625000 0.750000
vt 0.375000 1.000000
vt 0.625000 1.000000
vt 0.875000 0.000000
vt 0.875000 0.250000
vt 0.125000 0.000000
vt 0.125000 0.250000
vt 0.375000 0.000000
vt 0.625000 0.000000
vt 0.375000 0.250000
vt 0.625000 0.250000
vt 0.375000 0.500000
vt 0.625000 0.500000
vt 0.375000 0.750000
vt 0.625000 0.750000
vt 0.375000 1.000000
vt 0.625000 1.000000
vt 0.875000 0.000000
vt 0.875000 0.250000
vt 0.125000 0.000000
vt 0.125000 0.250000
vt 0.375000 0.000000
vt 0.625000 0.000000
vt 0.375000 0.250000
vt 0.625000 0.250000
vt 0.375000 0.500000
vt 0.625000 0.500000
vt 0.375000 0.750000
vt 0.625000 0.750000
vt 0.375000 1.000000
vt 0.625000 1.000000
vt 0.875000 0.000000
vt 0.875000 0.250000
vt 0.125000 0.000000
vt 0.125000 0.250000
vt 0.375000 0.000000
vt 0.625000 0.000000
vt 0.375000 0.250000
vt 0.625000 0.250000
vt 0.375000 0.500000
vt 0.625000 0.500000
vt 0.375000 0.750000
vt 0.625000 0.750000
vt 0.375000 1.000000
vt 0.625000 1.000000
vt 0.875000 0.000000
vt 0.875000 0.250000
vt 0.125000 0.000000
vt 0.125000 0.250000
vt 0.375000 0.000000
vt 0.625000 0.000000
vt 0.375000 0.250000
vt 0.625000 0.250000
vt 0.375000 0.500000
vt 0.625000 0.500000
vt 0.375000 0.750000
vt 0.625000 0.750000
vt 0.375000 1.000000
vt 0.625000 1.000000
vt 0.875000 0.000000
vt 0.875000 0.250000
vt 0.125000 0.000000
vt 0.125000 0.250000
vt 0.375000 0.000000
vt 0.625000 0.000000
vt 0.375000 0.250000
vt 0.625000 0.250000
vt 0.375000 0.500000
vt 0.625000 0.500000
vt 0.375000 0.750000
vt 0.625000 0.750000
vt 0.375000 1.000000
vt 0.625000 1.000000
vt 0.875000 0.000000
vt 0.875000 0.250000
vt 0.125000 0.000000
vt 0.125000 0.250000
vt 0.481060 0.000000
vt 0.457362 0.250000
vt 0.375000 0.000000
vt 0.375000 0.250000
vt 0.375000 0.500000
vt 0.518098 0.500000
vt 0.529344 0.750000
vt 0.375000 0.750000
vt 0.481060 1.000000
vt 0.375000 1.000000
vt 0.625000 0.000000
vt 0.875000 0.000000
vt 0.625000 0.250000
vt 0.875000 0.250000
vt 0.125000 0.000000
vt 0.125000 0.250000
vt 0.625000 0.500000
vt 0.625000 0.750000
vt 0.625000 1.000000
vn 1.000000 0.000000 0.000000
vn 1.000000 0.000000 0.000000
vn 1.000000 0.000000 0.000000
vn 1.000000 0.000000 0.000000
vn 0.000000 0.711128 -0.703062
vn 0.000000 0.711128 -0.703062
vn 0.000000 0.711128 -0.703062
vn 0.000000 0.711128 -0.703062
vn -1.000000 0.000000 -0.000000
vn -1.000000 0.000000 -0.000000
vn -1.000000 0.000000 -0.000000
vn -1.000000 0.000000 -0.000000
vn 0.000000 -1.000000 0.000000
vn 0.000000 -1.000000 0.000000
vn 0.000000 -1.000000 0.000000
vn 0.000000 -1.000000 0.000000
vn 0.000000 0.698402 -0.715706
vn 0.000000 0.698402 -0.715706
vn 0.000000 0.698402 -0.715706
vn 0.000000 0.698402 -0.715706
vn -0.000000 0.000000 1.000000
vn -0.000000 0.000000 1.000000
vn -0.000000 0.000000 1.000000
vn -0.000000 0.000000 1.000000
vn 0.999362 0.030747 0.018148
vn 0.999362 0.030747 0.018148
vn 0.999362 0.030747 0.018148
vn 0.999362 0.030747 0.018148
vn -0.029329 0.996840 -0.073819
vn -0.029329 0.996840 -0.073819
vn -0.029329 0.996840 -0.073819
vn -0.029329 0.996840 -0.073819
vn -0.999362 -0.030747 -0.018148
vn -0.999362 -0.030747 -0.018148
vn -0.999362 -0.030747 -0.018148
vn -0.999362 -0.030747 -0.018148
vn 0.023870 -0.953395 0.300778
vn 0.023870 -0.953395 0.300778
vn 0.023870 -0.953395 0.300778
vn 0.023870 -0.953395 0.300778
vn -0.016512 0.848705 -0.528609
vn -0.016512 0.848705 -0.528609
vn -0.016512 0.848705 -0.528609
vn -0.016512 0.848705 -0.528609
vn -0.026551 0.300153 0.953522
vn -0.026551 0.300153 0.953522
vn -0.026551 0.300153 0.953522
vn -0.026551 0.300153 0.953522
vn 1.000000 0.000000 -0.000001
vn 1.000000 0.000000 0.000000
vn 1.000000 0.000000 -0.000001
vn 1.000000 0.000000 0.000001
vn 0.000000 0.885261 -0.465095
vn 0.000000 0.885261 -0.465095
vn 0.000000 0.885261 -0.465095
vn 0.000000 0.885261 -0.465095
vn -1.000000 0.000000 -0.000000
vn -1.000000 0.000000 -0.000000
vn -1.000000 0.000000 -0.000000
vn -1.000000 0.000000 -0.000000
vn -0.000000 -0.885261 0.465095
vn -0.000000 -0.885261 0.465095
vn -0.000000 -0.885261 0.465095
vn -0.000000 -0.885261 0.465095
vn 0.000000 -0.465094 -0.885261
vn 0.000000 -0.465096 -0.885261
vn 0.000000 -0.465094 -0.885261
vn 0.000000 -0.465096 -0.885260
vn -0.000000 0.465095 0.885261
vn -0.000000 0.465095 0.885261
vn -0.000000 0.465095 0.885261
vn -0.000000 0.465095 0.885261
vn 0.545566 -0.755340 -0.363071
vn 0.545566 -0.755339 -0.363071
vn 0.545566 -0.755340 -0.363071
vn 0.545566 -0.755339 -0.363071
vn 0.628820 0.655334 -0.418476
vn 0.628820 0.655334 -0.418476
vn 0.628820 0.655334 -0.418476
vn 0.628820 0.655334 -0.418476
vn -0.545566 0.755339 0.363071
vn -0.545566 0.755339 0.363071
vn -0.545566 0.755339 0.363071
vn -0.545566 0.755340 0.363071
vn -0.628821 -0.655334 0.418476
vn -0.628821 -0.655334 0.418476
vn -0.628821 -0.655334 0.418476
vn -0.628821 -0.655334 0.418476
vn -0.554024 0.000000 -0.832501
vn -0.554024 0.000000 -0.832501
vn -0.554024 -0.000000 -0.832501
vn -0.554024 -0.000000 -0.832501
vn 0.554024 0.000000 0.832501
vn 0.554024 0.000000 0.832501
vn 0.554024 0.000000 0.832501
vn 0.554024 0.000000 0.832501
vn 0.669322 0.742972 0.000000
vn 0.669322 0.742972 0.000000
vn 0.669322 0.742972 0.000000
vn 0.669322 0.742972 0.000000
vn 0.846418 0.532519 0.000000
vn 0.846418 0.532519 0.000000
vn 0.846418 0.532519 0.000000
vn 0.846418 0.532519 0.000000
vn -0.928386 -0.371618 -0.000000
vn -0.928386 -0.371618 -0.000000
vn -0.928386 -0.371618 -0.000000
vn -0.928386 -0.371618 -0.000000
vn 0.000000 -1.000000 0.000000
vn 0.000000 -1.000000 0.000000
vn 0.000000 -1.000000 0.000000
vn 0.000000 -1.000000 0.000000
vn 0.000000 0.000000 -1.000000
vn 0.000000 0.000000 -1.000000
vn 0.000000 0.000000 -1.000000
vn 0.000000 0.000000 -1.000000
vn -0.000000 0.000000 1.000000
vn -0.000000 -0.000000 1.000000
vn -0.000000 -0.000000 1.000000
vn -0.000000 -0.000000 1.000000
vn 0.836691 -0.547676 -0.000001
vn 0.836691 -0.547675 -0.000000
vn 0.836691 -0.547676 -0.000001
vn 0.836691 -0.547675 0.000000
vn 0.426951 0.652259 0.626315
vn 0.426952 0.652259 0.626315
vn 0.426952 0.652259 0.626315
vn 0.426952 0.652259 0.626315
vn -0.836691 0.547676 -0.000000
vn -0.836691 0.547675 -0.000000
vn -0.836691 0.547676 -0.000000
vn -0.836691 0.547675 -0.000000
vn -0.426952 -0.652259 -0.626315
vn -0.426952 -0.652259 -0.626315
vn -0.426951 -0.652259 -0.626315
vn -0.426951 -0.652259 -0.626315
vn 0.343018 0.524032 -0.779570
vn 0.343017 0.524032 -0.779570
vn 0.343017 0.524032 -0.779570
vn 0.343017 0.524032 -0.779570
vn -0.343017 -0.524032 0.779570
vn -0.343017 -0.524032 0.779570
vn -0.343017 -0.524032 0.779570
vn -0.343017 -0.524032 0.779570
vn 0.937952 0.346764 0.000000
vn 0.937952 0.346764 0.000000
vn 0.937952 0.346764 0.000000
vn 0.937952 0.346764 0.000000
vn 0.686437 0.727189 0.000000
vn 0.686437 0.727189 0.000000
vn 0.686437 0.727189 0.000000
vn 0.686437 0.727189 0.000000
vn -0.937952 -0.346764 -0.000000
vn -0.937952 -0.346764 -0.000000
vn -0.937952 -0.346764 -0.000000
vn -0.937952 -0.346764 -0.000000
vn 0.999072 -0.043078 0.000000
vn 0.999072 -0.043078 0.000000
vn 0.999072 -0.043078 0.000000
vn 0.999072 -0.043078 0.000000
vn 0.000000 0.000000 -1.000000
vn 0.000000 0.000000 -1.000000
vn 0.000000 0.000000 -1.000000
vn 0.000000 0.000000 -1.000000
vn -0.000000 0.000000 1.000000
vn -0.000000 0.000000 1.000000
vn -0.000000 0.000000 1.000000
vn -0.000000 -0.000000 1.000000
vn -0.015205 -0.962546 -0.270692
vn -0.156953 -0.985299 0.067469
vn -0.150423 -0.854479 0.497232
vn -0.119725 -0.856408 0.502227
vn 0.990369 -0.138451 0.000000
vn 0.978357 -0.206217 0.017080
vn 0.972613 -0.212380 0.094444
vn 0.967233 -0.236242 0.093010
vn 0.069408 0.989385 0.127668
vn 0.207909 0.975268 -0.075013
vn 0.107575 0.886934 0.449195
vn 0.123696 0.884817 0.449219
vn -0.966247 0.238769 -0.096723
vn -0.977268 0.210705 -0.023452
vn -0.971778 0.216745 -0.093105
vn -0.990369 0.138452 -0.000000
vn 0.009377 0.067073 -0.997704
vn 0.009377 0.067073 -0.997704
vn 0.009377 0.067073 -0.997704
vn 0.009377 0.067073 -0.997704
vn -0.049655 -0.355193 0.933473
vn -0.049655 -0.355194 0.933473
vn -0.049655 -0.355193 0.933473
vn -0.049655 -0.355194 0.933473
vn -0.049232 -0.701130 -0.711332
vn -0.096274 -0.688658 -0.718667
vn 0.972545 -0.232147 -0.016253
vn 0.860848 -0.401822 0.312217
vn 0.146260 0.825681 -0.544848
vn 0.116206 0.831239 -0.543634
vn -0.971995 0.232862 0.031650
vn -0.853794 0.400194 -0.332987
s 1
g pCube9
usemtl initialShadingGroup
f 2/2/1 4/4/2 1/1/3
f 1/1/3 4/4/2 3/3/4
s 2
f 3/3/5 4/4/6 5/5/7
f 5/5/7 4/4/6 6/6/8
s 3
f 5/5/9 6/6/10 7/7/11
f 7/7/11 6/6/10 8/8/12
s 4
f 7/7/13 8/8/14 1/9/15
f 1/9/15 8/8/14 2/10/16
s 5
f 2/2/17 8/11/18 4/4/19
f 4/4/19 8/11/18 6/12/20
s 6
f 7/13/21 1/1/22 5/14/23
f 5/14/23 1/1/22 3/3/24
s 7
f 9/15/25 10/16/26 11/17/27
f 10/16/26 12/18/28 11/17/27
s 8
f 11/17/29 12/18/30 13/19/31
f 13/19/31 12/18/30 14/20/32
s 9
f 15/21/33 13/19/34 16/22/35
f 13/19/34 14/20/36 16/22/35
s 10
f 15/21/37 16/22/38 9/23/39
f 9/23/39 16/22/38 10/24/40
s 11
f 10/16/41 16/25/42 12/18/43
f 12/18/43 16/25/42 14/26/44
s 12
f 15/27/45 9/15/46 13/28/47
f 13/28/47 9/15/46 11/17/48
s 13
f 17/29/49 18/30/50 19/31/51
f 19/31/51 18/30/50 20/32/52
s 14
f 19/31/53 20/32/54 21/33/55
f 21/33/55 20/32/54 22/34/56
s 15
f 21/33/57 22/34/58 23/35/59
f 23/35/59 22/34/58 24/36/60
s 16
f 23/35/61 24/36/62 17/37/63
f 17/37/63 24/36/62 18/38/64
s 17
f 18/30/65 24/39/66 20/32/67
f 20/32/67 24/39/66 22/40/68
s 18
f 23/41/69 17/29/70 21/42/71
f 21/42/71 17/29/70 19/31/72
s 19
f 25/43/73 26/44/74 27/45/75
f 27/45/75 26/44/74 28/46/76
s 20
f 27/45/77 28/46/78 29/47/79
f 29/47/79 28/46/78 30/48/80
s 21
f 29/47/81 30/48/82 31/49/83
f 31/49/83 30/48/82 32/50/84
s 22
f 31/49/85 32/50/86 25/51/87
f 25/51/87 32/50/86 26/52/88
s 23
f 26/44/89 32/53/90 28/46/91
f 28/46/91 32/53/90 30/54/92
s 24
f 31/55/93 25/43/94 29/56/95
f 29/56/95 25/43/94 27/45/96
s 25
f 33/57/97 34/58/98 35/59/99
f 35/59/99 34/58/98 36/60/100
s 26
f 35/59/101 36/60/102 37/61/103
f 37/61/103 36/60/102 38/62/104
s 27
f 37/61/105 38/62/106 39/63/107
f 39/63/107 38/62/106 40/64/108
s 28
f 39/63/109 40/64/110 33/65/111
f 33/65/111 40/64/110 34/66/112
s 29
f 34/58/113 40/67/114 36/60/115
f 36/60/115 40/67/114 38/68/116
s 30
f 33/57/117 35/59/118 39/69/119
f 39/69/119 35/59/118 37/70/120
s 31
f 41/71/121 42/72/122 43/73/123
f 43/73/123 42/72/122 44/74/124
s 32
f 43/73/125 44/74/126 45/75/127
f 45/75/127 44/74/126 46/76/128
s 33
f 45/75/129 46/76/130 47/77/131
f 47/77/131 46/76/130 48/78/132
s 34
f 47/77/133 48/78/134 41/79/135
f 41/79/135 48/78/134 42/80/136
s 35
f 42/72/137 48/81/138 44/74/139
f 44/74/139 48/81/138 46/82/140
s 36
f 47/83/141 41/71/142 45/84/143
f 45/84/143 41/71/142 43/73/144
s 37
f 49/85/145 50/86/146 51/87/147
f 51/87/147 50/86/146 52/88/148
s 38
f 51/87/149 52/88/150 53/89/151
f 53/89/151 52/88/150 54/90/152
s 39
f 53/89/153 54/90/154 55/91/155
f 55/91/155 54/90/154 56/92/156
s 40
f 55/91/157 56/92/158 49/93/159
f 49/93/159 56/92/158 50/94/160
s 41
f 56/95/161 54/96/162 50/86/163
f 50/86/163 54/96/162 52/88/164
s 42
f 55/97/165 49/85/166 53/98/167
f 53/98/167 49/85/166 51/87/168
s 43
f 65/99/169 66/100/170 57/101/171
f 57/101/171 66/100/170 59/102/172
s 44
f 59/102/173 66/100/174 61/103/175
f 61/103/175 66/100/174 67/104/176
s 45
f 67/104/177 68/105/178 61/103/179
f 61/103/179 68/105/178 63/106/180
s 46
f 68/105/181 65/107/182 63/106/183
f 63/106/183 65/107/182 57/108/184
s 47
f 58/109/185 64/110/186 60/111/187
f 60/111/187 64/110/186 62/112/188
s 48
f 63/113/189 57/101/190 61/114/191
f 61/114/191 57/101/190 59/102/192
s 43
f 66/100/170 65/99/169 60/111/193
f 60/111/193 65/99/169 58/109/194
s 44
f 66/100/174 60/111/195 67/104/176
f 67/104/176 60/111/195 62/115/196
s 45
f 68/105/178 67/104/177 64/116/197
f 64/116/197 67/104/177 62/115/198
s 46
f 65/107/182 68/105/181 58/117/199
f 58/117/199 68/105/181 64/116/200
