# This file uses centimeters as units for non-parametric coordinates.

mtllib SpawnPoint.mtl
g default
v -0.864984 1.923224 -0.005726
v -0.327307 1.083207 -0.078344
v -0.276703 2.235279 0.740295
v 0.260974 1.395261 0.667677
v 0.327307 2.679117 0.078344
v 0.864984 1.839100 0.005726
v -0.260974 2.367063 -0.667677
v 0.276703 1.527045 -0.740295
vt 0.375000 0.000000
vt 0.625000 0.000000
vt 0.375000 0.250000
vt 0.625000 0.250000
vt 0.375000 0.500000
vt 0.625000 0.500000
vt 0.375000 0.750000
vt 0.625000 0.750000
vt 0.375000 1.000000
vt 0.625000 1.000000
vt 0.875000 0.000000
vt 0.875000 0.250000
vt 0.125000 0.000000
vt 0.125000 0.250000
vn -0.604010 -0.443839 0.661951
vn -0.604010 -0.443839 0.661951
vn -0.604010 -0.443839 0.661951
vn -0.604010 -0.443839 0.661951
vn 0.588281 0.312054 0.746021
vn 0.588281 0.312054 0.746021
vn 0.588281 0.312054 0.746021
vn 0.588281 0.312054 0.746021
vn 0.604010 0.443839 -0.661951
vn 0.604010 0.443839 -0.661951
vn 0.604010 0.443839 -0.661951
vn 0.604010 0.443839 -0.661951
vn -0.588281 -0.312054 -0.746021
vn -0.588281 -0.312054 -0.746021
vn -0.588281 -0.312054 -0.746021
vn -0.588281 -0.312054 -0.746021
vn 0.537678 -0.840017 -0.072618
vn 0.537678 -0.840017 -0.072618
vn 0.537678 -0.840017 -0.072618
vn 0.537678 -0.840017 -0.072618
vn -0.537678 0.840017 0.072618
vn -0.537678 0.840017 0.072618
vn -0.537678 0.840017 0.072618
vn -0.537678 0.840017 0.072618
s off
g pCube1
usemtl blinn1SG
f 1/1/1 2/2/2 4/4/3 3/3/4
f 3/3/5 4/4/6 6/6/7 5/5/8
f 5/5/9 6/6/10 8/8/11 7/7/12
f 7/7/13 8/8/14 2/10/15 1/9/16
f 2/2/17 8/11/18 6/12/19 4/4/20
f 7/13/21 1/1/22 3/3/23 5/14/24
