# This file uses centimeters as units for non-parametric coordinates.

mtllib Sword.mtl
g default
v -0.071641 0.647392 -0.074086
v 0.034929 0.647392 0.110498
v -0.092041 2.437795 -0.153908
v 0.054193 3.170132 0.099376
v -0.087268 2.437795 -0.156663
v 0.058966 3.170132 0.096621
v -0.028340 0.647392 -0.099086
v 0.078230 0.647392 0.085498
v -0.084976 2.536591 -0.141672
v -0.079904 2.538052 -0.143910
v 0.034929 2.520737 0.110498
v 0.078230 2.522233 0.085498
v 0.078230 2.676411 0.085498
v -0.072061 2.668229 -0.119301
v -0.066423 2.672453 -0.120559
v 0.034929 2.672223 0.110498
v 0.078230 2.829024 0.085498
v -0.051610 2.822176 -0.083880
v -0.045257 2.829889 -0.083899
v 0.034929 2.821290 0.110498
v 0.078230 2.972949 0.085498
v -0.021910 2.966803 -0.032439
v -0.014873 2.977860 -0.031272
v 0.034929 2.961608 0.110498
v 0.078230 3.043316 0.085498
v 0.001467 3.041151 0.008052
v 0.008911 3.054188 0.009922
v 0.034929 3.029053 0.110498
v -0.211603 0.550000 -0.166506
v 0.038397 0.550000 0.266506
v -0.211603 0.750000 -0.166506
v 0.038397 0.750000 0.266506
v -0.038397 0.750000 -0.266506
v 0.211603 0.750000 0.166506
v -0.038397 0.550000 -0.266506
v 0.211603 0.550000 0.166506
v 0.037157 -0.009106 0.033457
v 0.045677 -0.009106 0.020337
v 0.049726 -0.009106 0.005226
v 0.048907 -0.009106 -0.010396
v 0.043301 -0.009106 -0.025000
v 0.033457 -0.009106 -0.037157
v 0.020337 -0.009106 -0.045677
v 0.005226 -0.009106 -0.049726
v -0.010396 -0.009106 -0.048907
v -0.025000 -0.009106 -0.043301
v -0.037157 -0.009106 -0.033457
v -0.045677 -0.009106 -0.020337
v -0.049726 -0.009106 -0.005226
v -0.048907 -0.009106 0.010396
v -0.043301 -0.009106 0.025000
v -0.033457 -0.009106 0.037157
v -0.020337 -0.009106 0.045677
v -0.005226 -0.009106 0.049726
v 0.010396 -0.009106 0.048907
v 0.025000 -0.009106 0.043301
v 0.037157 0.629971 0.033457
v 0.045677 0.629971 0.020337
v 0.049726 0.629971 0.005226
v 0.048907 0.629971 -0.010396
v 0.043301 0.629971 -0.025000
v 0.033457 0.629971 -0.037157
v 0.020337 0.629971 -0.045677
v 0.005226 0.629971 -0.049726
v -0.010396 0.629971 -0.048907
v -0.025000 0.629971 -0.043301
v -0.037157 0.629971 -0.033457
v -0.045677 0.629971 -0.020337
v -0.049726 0.629971 -0.005226
v -0.048907 0.629971 0.010396
v -0.043301 0.629971 0.025000
v -0.033457 0.629971 0.037157
v -0.020337 0.629971 0.045677
v -0.005226 0.629971 0.049726
v 0.010396 0.629971 0.048907
v 0.025000 0.629971 0.043301
v 0.000000 -0.009106 0.000000
v 0.000000 0.629971 0.000000
vt 0.221470 0.161887
vt 0.408493 0.161887
vt 0.221470 0.348910
vt 0.408493 0.348910
vt 0.221470 0.535932
vt 0.408493 0.535932
vt 0.221470 0.722955
vt 0.408493 0.722955
vt 0.221470 0.909978
vt 0.408493 0.909978
vt 0.595515 0.161887
vt 0.595515 0.348910
vt 0.034447 0.161887
vt 0.034447 0.348910
vt 0.246700 0.348910
vt 0.247073 0.535932
vt 0.408493 0.300767
vt 0.408493 0.583964
vt 0.595515 0.300878
vt 0.408493 0.572534
vt 0.595515 0.312308
vt 0.280318 0.348910
vt 0.281396 0.535932
vt 0.408493 0.311997
vt 0.408493 0.561221
vt 0.595515 0.323622
vt 0.319632 0.348910
vt 0.321602 0.535932
vt 0.408493 0.323048
vt 0.408493 0.550551
vt 0.595515 0.334292
vt 0.356567 0.348910
vt 0.359391 0.535932
vt 0.408493 0.333451
vt 0.408493 0.545334
vt 0.595515 0.339508
vt 0.375553 0.348910
vt 0.378883 0.535932
vt 0.408493 0.338451
vt 0.778960 0.079258
vt 0.816814 0.079258
vt 0.816814 0.117112
vt 0.778960 0.117112
vt 0.816814 0.154965
vt 0.778960 0.154965
vt 0.816814 0.192819
vt 0.778960 0.192819
vt 0.816814 0.230673
vt 0.778960 0.230673
vt 0.854667 0.079258
vt 0.854667 0.117112
vt 0.741106 0.079258
vt 0.741106 0.117112
vt 0.698006 0.685881
vt 0.707357 0.685881
vt 0.707357 0.967118
vt 0.698006 0.967118
vt 0.716709 0.685881
vt 0.716709 0.967118
vt 0.726060 0.685881
vt 0.726060 0.967118
vt 0.735411 0.685881
vt 0.735411 0.967118
vt 0.744762 0.685881
vt 0.744762 0.967118
vt 0.754113 0.685881
vt 0.754113 0.967118
vt 0.763464 0.685881
vt 0.763464 0.967118
vt 0.772815 0.685881
vt 0.772815 0.967118
vt 0.782167 0.685881
vt 0.782167 0.967118
vt 0.791518 0.685881
vt 0.791518 0.967118
vt 0.800869 0.685881
vt 0.800869 0.967118
vt 0.810220 0.685881
vt 0.810220 0.967118
vt 0.819571 0.685881
vt 0.819571 0.967118
vt 0.828922 0.685881
vt 0.828922 0.967118
vt 0.838273 0.685881
vt 0.838273 0.967118
vt 0.847624 0.685881
vt 0.847624 0.967118
vt 0.856975 0.685881
vt 0.856975 0.967118
vt 0.866327 0.685881
vt 0.866327 0.967118
vt 0.875678 0.685881
vt 0.875678 0.967118
vt 0.885029 0.685881
vt 0.885029 0.967118
vt 0.894804 0.417094
vt 0.911407 0.449679
vt 0.800239 0.481124
vt 0.868945 0.391235
vt 0.836360 0.374632
vt 0.800239 0.368911
vt 0.764118 0.374632
vt 0.731533 0.391235
vt 0.705674 0.417094
vt 0.689071 0.449679
vt 0.683349 0.485800
vt 0.689071 0.521921
vt 0.705674 0.554506
vt 0.731533 0.580365
vt 0.764118 0.596968
vt 0.800239 0.602689
vt 0.836359 0.596968
vt 0.868945 0.580365
vt 0.894804 0.554506
vt 0.911407 0.521921
vt 0.917128 0.485800
vt 0.911252 0.522556
vt 0.894649 0.555141
vt 0.800084 0.481760
vt 0.868790 0.581001
vt 0.836204 0.597603
vt 0.800084 0.603324
vt 0.763963 0.597603
vt 0.731378 0.581001
vt 0.705518 0.555141
vt 0.688915 0.522556
vt 0.683195 0.486435
vt 0.688915 0.450315
vt 0.705518 0.417730
vt 0.731378 0.391870
vt 0.763963 0.375267
vt 0.800084 0.369546
vt 0.836205 0.375267
vt 0.868790 0.391870
vt 0.894649 0.417730
vt 0.911252 0.450315
vt 0.916973 0.486435
vn -0.887996 0.005276 0.459821
vn -0.887996 0.005276 0.459821
vn -0.889175 0.005435 0.457535
vn -0.889099 0.005425 0.457682
vn -0.887996 0.005276 0.459821
vn -0.464509 0.143379 -0.873884
vn -0.431320 0.168053 -0.886409
vn -0.419617 0.176540 -0.890368
vn -0.464509 0.143379 -0.873884
vn 0.842198 0.005285 -0.539142
vn 0.840875 0.005449 -0.541202
vn 0.840777 0.005461 -0.541354
vn 0.842198 0.005285 -0.539142
vn 0.842198 0.005285 -0.539142
vn 0.000000 -1.000000 0.000000
vn 0.000000 -1.000000 0.000000
vn 0.000000 -1.000000 0.000000
vn 0.000000 -1.000000 0.000000
vn 0.500000 0.000000 0.866025
vn 0.500000 0.000000 0.866025
vn 0.500000 0.000000 0.866025
vn 0.500000 0.000000 0.866025
vn -0.499510 -0.044264 -0.865177
vn -0.499510 -0.044264 -0.865177
vn -0.499510 -0.044264 -0.865177
vn -0.499510 -0.044264 -0.865177
vn -0.907161 0.010184 0.420662
vn -0.906737 0.009745 0.421583
vn -0.381400 0.213497 -0.899418
vn -0.361777 0.240142 -0.900805
vn 0.818121 0.009981 -0.574959
vn 0.817495 0.010431 -0.575841
vn 0.500000 0.000000 0.866025
vn 0.500000 0.000000 0.866025
vn -0.914131 0.018126 0.405014
vn -0.913120 0.016905 0.407341
vn -0.372044 0.278905 -0.885322
vn -0.443260 0.356874 -0.822290
vn 0.808461 0.017232 -0.588297
vn 0.806853 0.018476 -0.590463
vn 0.500000 0.000000 0.866025
vn 0.500000 0.000000 0.866025
vn -0.924225 0.032845 0.380433
vn -0.922677 0.030103 0.384397
vn -0.491081 0.393302 -0.777273
vn -0.672126 0.475552 -0.567536
vn 0.792241 0.030710 -0.609435
vn 0.789352 0.033501 -0.613026
vn 0.500000 0.000000 0.866025
vn 0.500000 0.000000 0.866025
vn -0.936193 0.094904 0.338431
vn -0.936243 0.083373 0.341317
vn -0.706097 0.518497 -0.482274
vn -0.674939 0.591043 -0.441730
vn 0.759274 0.085015 -0.645195
vn 0.756329 0.098479 -0.646737
vn 0.500000 -0.000000 0.866025
vn 0.500000 -0.000000 0.866025
vn -0.933913 0.152998 0.323108
vn -0.671010 0.599098 -0.436838
vn -0.671010 0.599098 -0.436838
vn 0.738320 0.169412 -0.652828
vn 0.500000 -0.000000 0.866025
vn 0.500000 -0.000000 0.866025
vn -0.866025 0.000000 0.500000
vn -0.866025 0.000000 0.500000
vn -0.866025 0.000000 0.500000
vn -0.866025 0.000000 0.500000
vn 0.000000 1.000000 0.000000
vn 0.000000 1.000000 0.000000
vn 0.000000 1.000000 0.000000
vn 0.000000 1.000000 0.000000
vn 0.866025 0.000000 -0.500000
vn 0.866025 0.000000 -0.500000
vn 0.866025 0.000000 -0.500000
vn 0.866025 0.000000 -0.500000
vn 0.000000 -1.000000 0.000000
vn 0.000000 -1.000000 0.000000
vn 0.000000 -1.000000 0.000000
vn 0.000000 -1.000000 0.000000
vn 0.500000 0.000000 0.866025
vn 0.500000 0.000000 0.866025
vn 0.500000 0.000000 0.866025
vn 0.500000 0.000000 0.866025
vn -0.500000 0.000000 -0.866025
vn -0.500000 0.000000 -0.866025
vn -0.500000 0.000000 -0.866025
vn -0.500000 0.000000 -0.866025
vn 0.743144 0.000000 0.669131
vn 0.913545 0.000000 0.406737
vn 0.913545 0.000000 0.406737
vn 0.743144 0.000000 0.669131
vn 0.994522 0.000000 0.104528
vn 0.994522 0.000000 0.104528
vn 0.978148 0.000000 -0.207912
vn 0.978148 0.000000 -0.207912
vn 0.866025 0.000000 -0.500000
vn 0.866025 0.000000 -0.500000
vn 0.669131 0.000000 -0.743145
vn 0.669131 0.000000 -0.743145
vn 0.406736 0.000000 -0.913546
vn 0.406736 0.000000 -0.913546
vn 0.104528 0.000000 -0.994522
vn 0.104528 0.000000 -0.994522
vn -0.207912 0.000000 -0.978148
vn -0.207912 0.000000 -0.978148
vn -0.500000 0.000000 -0.866025
vn -0.500000 0.000000 -0.866025
vn -0.743145 0.000000 -0.669131
vn -0.743145 0.000000 -0.669131
vn -0.913546 0.000000 -0.406737
vn -0.913546 0.000000 -0.406737
vn -0.994522 0.000000 -0.104528
vn -0.994522 0.000000 -0.104528
vn -0.978148 0.000000 0.207912
vn -0.978148 0.000000 0.207912
vn -0.866025 0.000000 0.500000
vn -0.866025 0.000000 0.500000
vn -0.669131 0.000000 0.743145
vn -0.669131 0.000000 0.743145
vn -0.406737 0.000000 0.913545
vn -0.406737 0.000000 0.913545
vn -0.104529 0.000000 0.994522
vn -0.104529 0.000000 0.994522
vn 0.207912 0.000000 0.978148
vn 0.207912 0.000000 0.978148
vn 0.499999 0.000000 0.866026
vn 0.499999 0.000000 0.866026
vn -0.000002 -1.000000 0.000001
vn -0.000002 -1.000000 0.000001
vn -0.000000 -1.000000 0.000000
vn 0.000000 -1.000000 0.000000
vn 0.000000 -1.000000 0.000000
vn 0.000000 -1.000000 0.000000
vn 0.000000 -1.000000 0.000000
vn 0.000000 -1.000000 0.000000
vn 0.000000 -1.000000 0.000000
vn 0.000000 -1.000000 0.000000
vn 0.000000 -1.000000 0.000000
vn 0.000000 -1.000000 0.000000
vn 0.000000 -1.000000 0.000000
vn 0.000000 -1.000000 0.000000
vn 0.000000 -1.000000 -0.000000
vn 0.000000 -1.000000 -0.000000
vn 0.000000 -1.000000 0.000000
vn 0.000000 -1.000000 0.000000
vn 0.000000 -1.000000 0.000000
vn 0.000000 -1.000000 0.000000
vn 0.000000 -1.000000 0.000000
vn 0.000000 1.000000 0.000000
vn 0.000000 1.000000 0.000000
vn -0.000000 1.000000 0.000000
vn -0.000000 1.000000 0.000000
vn -0.000000 1.000000 0.000000
vn 0.000000 1.000000 0.000000
vn 0.000000 1.000000 0.000000
vn 0.000000 1.000000 0.000000
vn 0.000000 1.000000 0.000000
vn 0.000000 1.000000 0.000000
vn 0.000000 1.000000 0.000000
vn 0.000000 1.000000 0.000000
vn 0.000000 1.000000 0.000000
vn 0.000000 1.000000 0.000000
vn 0.000000 1.000000 0.000000
vn -0.000000 1.000000 0.000000
vn -0.000000 1.000000 0.000000
vn 0.000000 1.000000 0.000000
vn 0.000000 1.000000 0.000000
vn 0.000000 1.000000 0.000000
vn 0.000000 1.000000 0.000000
s 1
g pCube3
usemtl blinn1SG
f 1/1/1 2/2/2 11/17/3 9/15/4 3/3/5
s 2
f 3/3/6 9/15/7 10/16/8 5/5/9
s 3
f 5/5/10 10/16/11 12/18/12 8/8/13 7/7/14
s off
f 7/7/15 8/8/16 2/10/17 1/9/18
s 4
f 2/2/19 8/11/20 12/19/21 11/17/22
s off
f 7/13/23 1/1/24 3/3/25 5/14/26
s 1
f 9/15/4 11/17/3 16/24/27 14/22/28
s 2
f 10/16/8 9/15/7 14/22/29 15/23/30
s 3
f 12/18/12 10/16/11 15/23/31 13/20/32
s 4
f 11/17/22 12/19/21 13/21/33 16/24/34
s 1
f 14/22/28 16/24/27 20/29/35 18/27/36
s 2
f 15/23/30 14/22/29 18/27/37 19/28/38
s 3
f 13/20/32 15/23/31 19/28/39 17/25/40
s 4
f 16/24/34 13/21/33 17/26/41 20/29/42
s 1
f 18/27/36 20/29/35 24/34/43 22/32/44
s 2
f 19/28/38 18/27/37 22/32/45 23/33/46
s 3
f 17/25/40 19/28/39 23/33/47 21/30/48
s 4
f 20/29/42 17/26/41 21/31/49 24/34/50
s 1
f 22/32/44 24/34/43 28/39/51 26/37/52
s 2
f 23/33/46 22/32/45 26/37/53 27/38/54
s 3
f 21/30/48 23/33/47 27/38/55 25/35/56
s 4
f 24/34/50 21/31/49 25/36/57 28/39/58
s 1
f 26/37/52 28/39/51 4/4/59
s 2
f 27/38/54 26/37/53 4/4/60 6/6/61
s 3
f 25/35/56 27/38/55 6/6/62
s 4
f 28/39/58 25/36/57 6/12/63 4/4/64
s off
f 29/40/65 30/41/66 32/42/67 31/43/68
f 31/43/69 32/42/70 34/44/71 33/45/72
f 33/45/73 34/44/74 36/46/75 35/47/76
f 35/47/77 36/46/78 30/48/79 29/49/80
f 30/41/81 36/50/82 34/51/83 32/42/84
f 35/52/85 29/40/86 31/43/87 33/53/88
s 5
f 37/54/89 38/55/90 58/56/91 57/57/92
f 38/55/90 39/58/93 59/59/94 58/56/91
f 39/58/93 40/60/95 60/61/96 59/59/94
f 40/60/95 41/62/97 61/63/98 60/61/96
f 41/62/97 42/64/99 62/65/100 61/63/98
f 42/64/99 43/66/101 63/67/102 62/65/100
f 43/66/101 44/68/103 64/69/104 63/67/102
f 44/68/103 45/70/105 65/71/106 64/69/104
f 45/70/105 46/72/107 66/73/108 65/71/106
f 46/72/107 47/74/109 67/75/110 66/73/108
f 47/74/109 48/76/111 68/77/112 67/75/110
f 48/76/111 49/78/113 69/79/114 68/77/112
f 49/78/113 50/80/115 70/81/116 69/79/114
f 50/80/115 51/82/117 71/83/118 70/81/116
f 51/82/117 52/84/119 72/85/120 71/83/118
f 52/84/119 53/86/121 73/87/122 72/85/120
f 53/86/121 54/88/123 74/89/124 73/87/122
f 54/88/123 55/90/125 75/91/126 74/89/124
f 55/90/125 56/92/127 76/93/128 75/91/126
f 56/92/127 37/94/89 57/95/92 76/93/128
s 6
f 38/96/129 37/97/130 77/98/131
f 39/99/132 38/96/129 77/98/131
f 40/100/133 39/99/132 77/98/131
f 41/101/134 40/100/133 77/98/131
f 42/102/135 41/101/134 77/98/131
f 43/103/136 42/102/135 77/98/131
f 44/104/137 43/103/136 77/98/131
f 45/105/138 44/104/137 77/98/131
f 46/106/139 45/105/138 77/98/131
f 47/107/140 46/106/139 77/98/131
f 48/108/141 47/107/140 77/98/131
f 49/109/142 48/108/141 77/98/131
f 50/110/143 49/109/142 77/98/131
f 51/111/144 50/110/143 77/98/131
f 52/112/145 51/111/144 77/98/131
f 53/113/146 52/112/145 77/98/131
f 54/114/147 53/113/146 77/98/131
f 55/115/148 54/114/147 77/98/131
f 56/116/149 55/115/148 77/98/131
f 37/97/130 56/116/149 77/98/131
s 7
f 57/117/150 58/118/151 78/119/152
f 58/118/151 59/120/153 78/119/152
f 59/120/153 60/121/154 78/119/152
f 60/121/154 61/122/155 78/119/152
f 61/122/155 62/123/156 78/119/152
f 62/123/156 63/124/157 78/119/152
f 63/124/157 64/125/158 78/119/152
f 64/125/158 65/126/159 78/119/152
f 65/126/159 66/127/160 78/119/152
f 66/127/160 67/128/161 78/119/152
f 67/128/161 68/129/162 78/119/152
f 68/129/162 69/130/163 78/119/152
f 69/130/163 70/131/164 78/119/152
f 70/131/164 71/132/165 78/119/152
f 71/132/165 72/133/166 78/119/152
f 72/133/166 73/134/167 78/119/152
f 73/134/167 74/135/168 78/119/152
f 74/135/168 75/136/169 78/119/152
f 75/136/169 76/137/170 78/119/152
f 76/137/170 57/117/150 78/119/152
