# This file uses centimeters as units for non-parametric coordinates.

mtllib Trail.mtl
g default
v -0.250000 0.000000 0.050000
v 0.250000 0.000000 0.050000
v -0.250000 2.000000 0.050000
v 0.250000 2.000000 0.050000
v -0.250000 2.000000 -0.050000
v 0.250000 2.000000 -0.050000
v -0.250000 0.000000 -0.050000
v 0.250000 0.000000 -0.050000
v -0.250000 2.080109 0.050000
v 0.250000 2.080109 0.050000
v 0.250000 2.080109 -0.050000
v -0.250000 2.080109 -0.050000
v -0.250000 2.000000 0.080000
v 0.250000 2.000000 0.080000
v 0.250000 2.080109 0.080000
v -0.250000 2.080109 0.080000
v -0.250000 2.000000 -0.080000
v 0.250000 2.000000 -0.080000
v -0.250000 2.080109 -0.080000
v 0.250000 2.080109 -0.080000
vt 0.275748 0.402991
vt 0.324252 0.402991
vt 0.575748 0.475748
vt 0.624252 0.475748
vt 0.575748 0.524252
vt 0.624252 0.524252
vt 0.275748 0.548505
vt 0.324252 0.548505
vt 0.275748 0.597009
vt 0.324252 0.597009
vt 0.372757 0.402991
vt 0.372757 0.451495
vt 0.227243 0.402991
vt 0.227243 0.451495
vt 0.575748 0.475748
vt 0.624252 0.475748
vt 0.624252 0.524252
vt 0.575748 0.524252
vt 0.575748 0.475748
vt 0.624252 0.475748
vt 0.624252 0.475748
vt 0.575748 0.475748
vt 0.624252 0.524252
vt 0.575748 0.524252
vt 0.575748 0.524252
vt 0.624252 0.524252
vt 0.624252 0.524252
vt 0.624252 0.524252
vt 0.624252 0.524252
vt 0.624252 0.524252
vt 0.575748 0.524252
vt 0.575748 0.524252
vt 0.624252 0.524252
vt 0.624252 0.524252
vt 0.624252 0.524252
vt 0.575748 0.524252
vt 0.575748 0.524252
vt 0.575748 0.524252
vt 0.575748 0.524252
vt 0.575748 0.524252
vt 0.324252 0.500000
vt 0.624252 0.524252
vt 0.624252 0.524252
vt 0.575748 0.524252
vt 0.275748 0.500000
vt 0.575748 0.524252
vt 0.575748 0.475748
vt 0.575748 0.475748
vt 0.575748 0.475748
vt 0.575748 0.475748
vt 0.624252 0.475748
vt 0.624252 0.475748
vt 0.575748 0.475748
vt 0.575748 0.475748
vt 0.575748 0.475748
vt 0.624252 0.475748
vt 0.624252 0.475748
vt 0.624252 0.475748
vt 0.624252 0.475748
vt 0.624252 0.475748
vt 0.624252 0.475748
vt 0.324252 0.451495
vt 0.624252 0.475748
vt 0.275748 0.451495
vt 0.575748 0.475748
vt 0.575748 0.475748
vn 0.000000 0.000000 1.000000
vn 0.000000 0.000000 1.000000
vn 0.000000 0.000000 1.000000
vn 0.000000 0.000000 1.000000
vn 0.000000 1.000000 0.000000
vn 0.000000 1.000000 0.000000
vn 0.000000 1.000000 0.000000
vn 0.000000 1.000000 0.000000
vn 0.000000 0.000000 -1.000000
vn 0.000000 0.000000 -1.000000
vn 0.000000 0.000000 -1.000000
vn 0.000000 0.000000 -1.000000
vn 0.000000 -1.000000 0.000000
vn 0.000000 -1.000000 0.000000
vn 0.000000 -1.000000 0.000000
vn 0.000000 -1.000000 0.000000
vn 1.000000 0.000000 0.000000
vn 1.000000 0.000000 0.000000
vn 1.000000 0.000000 0.000000
vn 1.000000 0.000000 0.000000
vn -1.000000 0.000000 0.000000
vn -1.000000 0.000000 0.000000
vn -1.000000 0.000000 0.000000
vn -1.000000 0.000000 0.000000
vn 0.000000 0.000000 1.000000
vn 0.000000 0.000000 1.000000
vn 0.000000 0.000000 1.000000
vn 0.000000 0.000000 1.000000
vn 1.000000 0.000000 0.000000
vn 1.000000 0.000000 0.000000
vn 0.000000 0.000000 -1.000000
vn 0.000000 0.000000 -1.000000
vn 0.000000 0.000000 -1.000000
vn 0.000000 0.000000 -1.000000
vn -1.000000 0.000000 0.000000
vn -1.000000 0.000000 0.000000
vn 0.000000 -1.000000 0.000000
vn 0.000000 -1.000000 0.000000
vn 0.000000 -1.000000 0.000000
vn 0.000000 -1.000000 0.000000
vn 1.000000 0.000000 0.000000
vn 1.000000 0.000000 0.000000
vn 0.000000 1.000000 0.000000
vn 0.000000 1.000000 0.000000
vn -1.000000 0.000000 0.000000
vn -1.000000 0.000000 0.000000
vn 0.000000 -1.000000 0.000000
vn 0.000000 -1.000000 0.000000
vn 0.000000 -1.000000 0.000000
vn 0.000000 -1.000000 0.000000
vn -1.000000 0.000000 0.000000
vn -1.000000 0.000000 0.000000
vn 0.000000 1.000000 0.000000
vn 0.000000 1.000000 0.000000
vn 1.000000 0.000000 0.000000
vn 1.000000 0.000000 0.000000
s off
g pCube1
usemtl initialShadingGroup
f 1/1/1 2/2/2 4/62/3 3/64/4
s 1
f 9/54/5 10/58/6 11/34/7 12/38/8
s off
f 5/45/9 6/41/10 8/8/11 7/7/12
f 7/7/13 8/8/14 2/10/15 1/9/16
s 2
f 2/2/17 8/11/18 6/12/19 4/62/20
s 3
f 7/13/21 1/1/22 3/64/23 5/14/24
s off
f 13/19/25 14/57/26 15/52/27 16/50/28
s 2
f 4/61/20 6/42/19 11/33/29 10/59/30
s off
f 18/23/31 17/37/32 19/32/33 20/30/34
s 3
f 5/44/24 3/65/23 9/53/35 12/39/36
s off
f 3/3/37 4/63/38 14/56/39 13/47/40
s 2
f 4/4/20 10/60/30 15/51/41 14/20/42
s 1
f 10/16/6 9/55/5 16/49/43 15/21/44
s 3
f 9/15/35 3/66/23 13/48/45 16/22/46
s off
f 6/6/47 5/46/48 17/36/49 18/27/50
s 3
f 5/5/24 12/40/36 19/31/51 17/24/52
s 1
f 12/18/8 11/35/7 20/29/53 19/25/54
s 2
f 11/17/29 6/43/19 18/28/55 20/26/56
