# This file uses centimeters as units for non-parametric coordinates.

mtllib TV.mtl
g default
v -0.125000 -1.500000 2.000000
v 0.125000 -1.500000 2.000000
v -0.125000 1.500000 2.000000
v 0.125000 1.500000 2.000000
v -0.125000 1.500000 -2.000000
v 0.125000 1.500000 -2.000000
v -0.125000 -1.500000 -2.000000
v 0.125000 -1.500000 -2.000000
v -0.228562 1.454558 -1.905055
v -0.228562 1.454558 1.905055
v -0.228562 -1.454559 1.905054
v -0.228562 -1.454558 -1.905055
v 0.228562 1.454558 -1.905055
v 0.228562 1.454558 1.905055
v 0.228562 -1.454559 1.905054
v 0.228562 -1.454558 -1.905055
v 0.228562 1.616176 -2.116728
v 0.228562 1.616176 2.116728
v 0.228562 -1.616176 2.116727
v 0.228562 -1.616176 -2.116728
v -0.228562 1.616176 -2.116728
v -0.228562 1.616176 2.116728
v -0.228562 -1.616176 2.116727
v -0.228562 -1.616176 -2.116728
vt 0.287480 0.112457
vt 0.499042 0.112457
vt 0.499042 0.324018
vt 0.287480 0.324018
vt 0.499042 0.535580
vt 0.287480 0.535580
vt 0.499042 0.747141
vt 0.287480 0.747141
vt 0.499042 0.958703
vt 0.287480 0.958703
vt 0.710603 0.112457
vt 0.710603 0.324018
vt 0.075918 0.112457
vt 0.075918 0.324018
vt 0.740794 0.894968
vt 0.680777 0.894968
vt 0.680777 0.834951
vt 0.740794 0.834951
vt 0.800811 0.894968
vt 0.800811 0.834951
vt 0.860827 0.894968
vt 0.860827 0.834951
vt 0.920844 0.894968
vt 0.920844 0.834951
vt 0.680777 0.774934
vt 0.740794 0.774934
vt 0.800811 0.774934
vt 0.860827 0.774934
vt 0.920844 0.774934
vt 0.680777 0.714918
vt 0.740794 0.714918
vt 0.800811 0.714918
vt 0.860827 0.714918
vt 0.920844 0.714918
vt 0.680777 0.654901
vt 0.740794 0.654901
vt 0.800811 0.654901
vt 0.860827 0.654901
vt 0.920844 0.654901
vn 0.000000 0.000000 1.000000
vn 0.000000 0.000000 1.000000
vn 0.000000 0.000000 1.000000
vn 0.000000 0.000000 1.000000
vn 0.000000 1.000000 0.000000
vn 0.000000 1.000000 0.000000
vn 0.000000 1.000000 0.000000
vn 0.000000 1.000000 0.000000
vn 0.000000 0.000000 -1.000000
vn 0.000000 0.000000 -1.000000
vn 0.000000 0.000000 -1.000000
vn 0.000000 0.000000 -1.000000
vn 0.000000 -1.000000 0.000000
vn 0.000000 -1.000000 0.000000
vn 0.000000 -1.000000 0.000000
vn 0.000000 -1.000000 0.000000
vn 1.000000 0.000000 0.000000
vn 1.000000 0.000000 0.000000
vn 1.000000 0.000000 0.000000
vn 1.000000 0.000000 0.000000
vn -1.000000 0.000000 0.000000
vn -1.000000 0.000000 0.000000
vn -1.000000 0.000000 0.000000
vn -1.000000 0.000000 0.000000
vn 0.000000 -1.000000 0.000000
vn 0.000000 -1.000000 0.000000
vn 0.000000 -1.000000 0.000000
vn 0.000000 -1.000000 0.000000
vn 0.000000 0.000000 -1.000000
vn 0.000000 0.000000 -1.000000
vn 0.000000 0.000000 -1.000000
vn 0.000000 0.000000 -1.000000
vn 0.000000 1.000000 0.000000
vn 0.000000 1.000000 0.000000
vn 0.000000 1.000000 0.000000
vn 0.000000 1.000000 0.000000
vn 0.000000 -0.000000 1.000000
vn 0.000000 -0.000000 1.000000
vn 0.000000 -0.000000 1.000000
vn 0.000000 -0.000000 1.000000
vn 1.000000 0.000000 0.000000
vn 1.000000 -0.000000 0.000000
vn 1.000000 0.000000 0.000000
vn 1.000000 -0.000000 0.000000
vn 1.000000 0.000000 0.000000
vn 1.000000 -0.000000 0.000000
vn 1.000000 0.000000 0.000000
vn 1.000000 0.000000 0.000000
vn 0.000000 1.000000 0.000000
vn 0.000000 1.000000 0.000000
vn 0.000000 1.000000 0.000000
vn 0.000000 1.000000 0.000000
vn 0.000000 -0.000000 1.000000
vn 0.000000 -0.000000 1.000000
vn 0.000000 -0.000000 1.000000
vn 0.000000 -0.000000 1.000000
vn 0.000000 -1.000000 -0.000000
vn 0.000000 -1.000000 -0.000000
vn 0.000000 -1.000000 -0.000000
vn 0.000000 -1.000000 -0.000000
vn 0.000000 0.000000 -1.000000
vn 0.000000 0.000000 -1.000000
vn 0.000000 0.000000 -1.000000
vn 0.000000 0.000000 -1.000000
vn -1.000000 -0.000000 0.000000
vn -1.000000 0.000000 0.000000
vn -1.000000 -0.000000 0.000000
vn -1.000000 0.000000 0.000000
vn -1.000000 0.000000 0.000000
vn -1.000000 -0.000000 0.000000
vn -1.000000 0.000000 0.000000
vn -1.000000 0.000000 0.000000
s 1
g polySurface3
usemtl blinn1SG
f 1/1/1 2/2/2 3/4/3
f 3/4/3 2/2/2 4/3/4
s 2
f 3/4/5 4/3/6 5/6/7
f 5/6/7 4/3/6 6/5/8
s 3
f 5/6/9 6/5/10 7/8/11
f 7/8/11 6/5/10 8/7/12
s 4
f 7/8/13 8/7/14 1/10/15
f 1/10/15 8/7/14 2/9/16
s 5
f 2/2/17 8/11/18 4/3/19
f 4/3/19 8/11/18 6/12/20
s 6
f 7/13/21 1/1/22 5/14/23
f 5/14/23 1/1/22 3/4/24
s 7
usemtl lambert2SG
f 10/15/25 9/16/26 14/18/27
f 14/18/27 9/16/26 13/17/28
s 8
f 11/19/29 10/15/30 15/20/31
f 15/20/31 10/15/30 14/18/32
s 9
f 12/21/33 11/19/34 16/22/35
f 16/22/35 11/19/34 15/20/36
s 10
f 9/23/37 12/21/38 13/24/39
f 13/24/39 12/21/38 16/22/40
s 11
f 14/18/41 13/17/42 18/26/43
f 18/26/43 13/17/42 17/25/44
f 15/20/45 14/18/41 19/27/46
f 19/27/46 14/18/41 18/26/43
f 16/22/47 15/20/45 20/28/48
f 20/28/48 15/20/45 19/27/46
f 13/24/42 16/22/47 17/29/44
f 17/29/44 16/22/47 20/28/48
s 12
f 18/26/49 17/25/50 22/31/51
f 22/31/51 17/25/50 21/30/52
s 13
f 19/27/53 18/26/54 23/32/55
f 23/32/55 18/26/54 22/31/56
s 14
f 20/28/57 19/27/58 24/33/59
f 24/33/59 19/27/58 23/32/60
s 15
f 17/29/61 20/28/62 21/34/63
f 21/34/63 20/28/62 24/33/64
s 16
f 22/31/65 21/30/66 10/36/67
f 10/36/67 21/30/66 9/35/68
f 23/32/69 22/31/65 11/37/70
f 11/37/70 22/31/65 10/36/67
f 24/33/71 23/32/69 12/38/72
f 12/38/72 23/32/69 11/37/70
f 21/34/66 24/33/71 9/39/68
f 9/39/68 24/33/71 12/38/72
g default
v -0.125000 -1.500000 2.000000
v 0.125000 -1.500000 2.000000
v -0.125000 1.500000 2.000000
v 0.125000 1.500000 2.000000
v -0.125000 1.500000 -2.000000
v 0.125000 1.500000 -2.000000
v -0.125000 -1.500000 -2.000000
v 0.125000 -1.500000 -2.000000
v -0.228562 1.454558 -1.905055
v -0.228562 1.454558 1.905055
v -0.228562 -1.454559 1.905054
v -0.228562 -1.454558 -1.905055
v 0.228562 1.454558 -1.905055
v 0.228562 1.454558 1.905055
v 0.228562 -1.454559 1.905054
v 0.228562 -1.454558 -1.905055
v 0.228562 1.616176 -2.116728
v 0.228562 1.616176 2.116728
v 0.228562 -1.616176 2.116727
v 0.228562 -1.616176 -2.116728
v -0.228562 1.616176 -2.116728
v -0.228562 1.616176 2.116728
v -0.228562 -1.616176 2.116727
v -0.228562 -1.616176 -2.116728
vt 0.287480 0.112457
vt 0.499042 0.112457
vt 0.499042 0.324018
vt 0.287480 0.324018
vt 0.499042 0.535580
vt 0.287480 0.535580
vt 0.499042 0.747141
vt 0.287480 0.747141
vt 0.499042 0.958703
vt 0.287480 0.958703
vt 0.710603 0.112457
vt 0.710603 0.324018
vt 0.075918 0.112457
vt 0.075918 0.324018
vt 0.740794 0.894968
vt 0.680777 0.894968
vt 0.680777 0.834951
vt 0.740794 0.834951
vt 0.800811 0.894968
vt 0.800811 0.834951
vt 0.860827 0.894968
vt 0.860827 0.834951
vt 0.920844 0.894968
vt 0.920844 0.834951
vt 0.680777 0.774934
vt 0.740794 0.774934
vt 0.800811 0.774934
vt 0.860827 0.774934
vt 0.920844 0.774934
vt 0.680777 0.714918
vt 0.740794 0.714918
vt 0.800811 0.714918
vt 0.860827 0.714918
vt 0.920844 0.714918
vt 0.680777 0.654901
vt 0.740794 0.654901
vt 0.800811 0.654901
vt 0.860827 0.654901
vt 0.920844 0.654901
vn 0.000000 0.000000 1.000000
vn 0.000000 0.000000 1.000000
vn 0.000000 0.000000 1.000000
vn 0.000000 0.000000 1.000000
vn 0.000000 1.000000 0.000000
vn 0.000000 1.000000 0.000000
vn 0.000000 1.000000 0.000000
vn 0.000000 1.000000 0.000000
vn 0.000000 0.000000 -1.000000
vn 0.000000 0.000000 -1.000000
vn 0.000000 0.000000 -1.000000
vn 0.000000 0.000000 -1.000000
vn 0.000000 -1.000000 0.000000
vn 0.000000 -1.000000 0.000000
vn 0.000000 -1.000000 0.000000
vn 0.000000 -1.000000 0.000000
vn 1.000000 0.000000 0.000000
vn 1.000000 0.000000 0.000000
vn 1.000000 0.000000 0.000000
vn 1.000000 0.000000 0.000000
vn -1.000000 0.000000 0.000000
vn -1.000000 0.000000 0.000000
vn -1.000000 0.000000 0.000000
vn -1.000000 0.000000 0.000000
vn 0.000000 -1.000000 0.000000
vn 0.000000 -1.000000 0.000000
vn 0.000000 -1.000000 0.000000
vn 0.000000 -1.000000 0.000000
vn 0.000000 0.000000 -1.000000
vn 0.000000 0.000000 -1.000000
vn 0.000000 0.000000 -1.000000
vn 0.000000 0.000000 -1.000000
vn 0.000000 1.000000 0.000000
vn 0.000000 1.000000 0.000000
vn 0.000000 1.000000 0.000000
vn 0.000000 1.000000 0.000000
vn 0.000000 -0.000000 1.000000
vn 0.000000 -0.000000 1.000000
vn 0.000000 -0.000000 1.000000
vn 0.000000 -0.000000 1.000000
vn 1.000000 0.000000 0.000000
vn 1.000000 -0.000000 0.000000
vn 1.000000 0.000000 0.000000
vn 1.000000 -0.000000 0.000000
vn 1.000000 0.000000 0.000000
vn 1.000000 -0.000000 0.000000
vn 1.000000 0.000000 0.000000
vn 1.000000 0.000000 0.000000
vn 0.000000 1.000000 0.000000
vn 0.000000 1.000000 0.000000
vn 0.000000 1.000000 0.000000
vn 0.000000 1.000000 0.000000
vn 0.000000 -0.000000 1.000000
vn 0.000000 -0.000000 1.000000
vn 0.000000 -0.000000 1.000000
vn 0.000000 -0.000000 1.000000
vn 0.000000 -1.000000 -0.000000
vn 0.000000 -1.000000 -0.000000
vn 0.000000 -1.000000 -0.000000
vn 0.000000 -1.000000 -0.000000
vn 0.000000 0.000000 -1.000000
vn 0.000000 0.000000 -1.000000
vn 0.000000 0.000000 -1.000000
vn 0.000000 0.000000 -1.000000
vn -1.000000 -0.000000 0.000000
vn -1.000000 0.000000 0.000000
vn -1.000000 -0.000000 0.000000
vn -1.000000 0.000000 0.000000
vn -1.000000 0.000000 0.000000
vn -1.000000 -0.000000 0.000000
vn -1.000000 0.000000 0.000000
vn -1.000000 0.000000 0.000000
s 1
g polySurface3
f 25/40/73 26/41/74 27/43/75
f 27/43/75 26/41/74 28/42/76
s 2
f 27/43/77 28/42/78 29/45/79
f 29/45/79 28/42/78 30/44/80
s 3
f 29/45/81 30/44/82 31/47/83
f 31/47/83 30/44/82 32/46/84
s 4
f 31/47/85 32/46/86 25/49/87
f 25/49/87 32/46/86 26/48/88
s 5
f 26/41/89 32/50/90 28/42/91
f 28/42/91 32/50/90 30/51/92
s 6
f 31/52/93 25/40/94 29/53/95
f 29/53/95 25/40/94 27/43/96
s 7
f 34/54/97 33/55/98 38/57/99
f 38/57/99 33/55/98 37/56/100
s 8
f 35/58/101 34/54/102 39/59/103
f 39/59/103 34/54/102 38/57/104
s 9
f 36/60/105 35/58/106 40/61/107
f 40/61/107 35/58/106 39/59/108
s 10
f 33/62/109 36/60/110 37/63/111
f 37/63/111 36/60/110 40/61/112
s 11
f 38/57/113 37/56/114 42/65/115
f 42/65/115 37/56/114 41/64/116
f 39/59/117 38/57/113 43/66/118
f 43/66/118 38/57/113 42/65/115
f 40/61/119 39/59/117 44/67/120
f 44/67/120 39/59/117 43/66/118
f 37/63/114 40/61/119 41/68/116
f 41/68/116 40/61/119 44/67/120
s 12
f 42/65/121 41/64/122 46/70/123
f 46/70/123 41/64/122 45/69/124
s 13
f 43/66/125 42/65/126 47/71/127
f 47/71/127 42/65/126 46/70/128
s 14
f 44/67/129 43/66/130 48/72/131
f 48/72/131 43/66/130 47/71/132
s 15
f 41/68/133 44/67/134 45/73/135
f 45/73/135 44/67/134 48/72/136
s 16
f 46/70/137 45/69/138 34/75/139
f 34/75/139 45/69/138 33/74/140
f 47/71/141 46/70/137 35/76/142
f 35/76/142 46/70/137 34/75/139
f 48/72/143 47/71/141 36/77/144
f 36/77/144 47/71/141 35/76/142
f 45/73/138 48/72/143 33/78/140
f 33/78/140 48/72/143 36/77/144
